<?xml version="1.0" encoding="UTF-8" standalone="no"?>
<svg
   xmlns:dc="http://purl.org/dc/elements/1.1/"
   xmlns:cc="http://creativecommons.org/ns#"
   xmlns:rdf="http://www.w3.org/1999/02/22-rdf-syntax-ns#"
   xmlns:svg="http://www.w3.org/2000/svg"
   xmlns="http://www.w3.org/2000/svg"
   xmlns:sodipodi="http://sodipodi.sourceforge.net/DTD/sodipodi-0.dtd"
   xmlns:inkscape="http://www.inkscape.org/namespaces/inkscape"
   viewBox="0 0 499.25236 732.43885"
   id="svg1118"
   height="732.43884"
   width="499.25235"
   version="1.1"
   sodipodi:docname="Insignia_of_the_Indonesian_Army.svg"
   inkscape:version="0.92.3 (2405546, 2018-03-11)">
  <sodipodi:namedview
     pagecolor="#ffffff"
     bordercolor="#666666"
     borderopacity="1"
     objecttolerance="10"
     gridtolerance="10"
     guidetolerance="10"
     inkscape:pageopacity="0"
     inkscape:pageshadow="2"
     inkscape:window-width="1366"
     inkscape:window-height="705"
     id="namedview159"
     showgrid="false"
     inkscape:zoom="0.66782322"
     inkscape:cx="40.820756"
     inkscape:cy="461.31555"
     inkscape:window-x="-8"
     inkscape:window-y="-8"
     inkscape:window-maximized="1"
     inkscape:current-layer="Layer1000" />
  <metadata
     id="metadata1124">
    <rdf:RDF>
      <cc:Work
         rdf:about="">
        <dc:format>image/svg+xml</dc:format>
        <dc:type
           rdf:resource="http://purl.org/dc/dcmitype/StillImage" />
        <dc:title />
      </cc:Work>
    </rdf:RDF>
  </metadata>
  <defs
     id="defs1122" />
  <g
     transform="translate(925.65986,-476.35703)"
     id="Layer1000">
    <path
       inkscape:connector-curvature="0"
       d="m -623.2189,797.21421 1.1041,1.9236 h -9.1017 c 0.6234,-1.7989 0.7859,-4.7873 0.3354,-8.9049 l 4.8252,6.9988 z m -13.2703,1.9236 h -6.7074 c 0.6852,-1.9743 1.2392,-4.7545 1.6528,-8.4012 1.8079,3.9207 3.5321,6.7037 5.0546,8.4012 z m -14.6106,0 h -5.8115 c 0.6855,-1.695 1.321,-3.94 1.9033,-6.7702 1.3888,2.7873 2.6944,5.0599 3.9082,6.7702 z m -14.1437,0 h -4.9016 c 0.6069,-1.6839 1.1902,-3.7436 1.7499,-6.1804 1.0902,2.4965 2.1418,4.5676 3.1517,6.1804 z m -14.4559,0 h -4.9434 c 0.8273,-1.5546 1.6471,-3.5767 2.4604,-6.0672 0.8505,2.3883 1.6782,4.409 2.483,6.0672 z m -13.4164,0 h -6.7706 c 1.2838,-1.3806 2.6637,-3.4124 4.1358,-6.0526 0.8851,2.4837 1.7635,4.5012 2.6348,6.0526 z m -13.3265,0 h -7.6221 c 1.6707,-1.1081 3.5467,-3.1045 5.4971,-5.8657 0.6169,2.6026 1.3263,4.5455 2.125,5.8657 z m -12.4583,0 h -8.741 l 0.9581,-1.7139 c 3.3199,-0.1147 5.7168,-1.1166 6.0429,-4.11 0.2186,2.8576 0.8312,4.7673 1.74,5.8239 z"
       style="fill:#ffcb00;fill-rule:evenodd;stroke:#1b1918;stroke-width:0.63010001;stroke-linecap:butt;stroke-linejoin:miter;stroke-dasharray:none"
       id="path817" />
    <g
       id="Layer1002"
       transform="translate(-1242.9635,417.48391)"
       style="fill:#ffcc00;fill-opacity:1">
      <path
         inkscape:connector-curvature="0"
         d="m 647.9155,436.3323 c 44.7401,31.6326 87.0437,67.6443 107.1407,74.1191 0.7394,0.2383 1.481,0.3919 2.2204,0.4673 -1.2367,16.9856 -12.6531,27.1768 -22.3499,20.4466 -19.1746,-13.3085 -51.6142,-47.3474 -87.0112,-85.6031 z"
         style="fill:#ffcc00;fill-rule:evenodd;stroke:#1b1918;stroke-width:2.52080011;stroke-linecap:butt;stroke-linejoin:miter;stroke-dasharray:none;fill-opacity:1"
         id="path819" />
      <path
         inkscape:connector-curvature="0"
         d="m 647.9155,430.9027 c 48.2883,19.564 93.0288,41.0394 113.3125,47.5738 4.2015,1.3535 9.7393,0.6334 15.0689,-1.8317 3.176,19.6015 -9.2906,37.6563 -21.2407,33.8066 -20.097,-6.4748 -62.4006,-42.4861 -107.1407,-74.1191 z"
         style="fill:#ffcc00;fill-rule:evenodd;stroke:#1b1918;stroke-width:2.52080011;stroke-linecap:butt;stroke-linejoin:miter;stroke-dasharray:none;fill-opacity:1"
         id="path821" />
      <path
         inkscape:connector-curvature="0"
         d="m 793.9863,447.5351 c 1.7335,22.0109 -20.8668,34.7722 -32.7583,30.9414 -20.2837,-6.5344 -65.0242,-28.0098 -113.3125,-47.5738 v -3.2363 c 57.2142,7.1199 115.0875,19.9498 136.5951,22.6988 3.1384,0.4012 6.4698,-0.6586 9.4757,-2.8301 z"
         style="fill:#ffcc00;fill-rule:evenodd;stroke:#1b1918;stroke-width:2.52080011;stroke-linecap:butt;stroke-linejoin:miter;stroke-dasharray:none;fill-opacity:1"
         id="path823" />
      <path
         inkscape:connector-curvature="0"
         d="m 647.9155,424.1793 c 42.3133,-1.8021 125.0276,-1.033 149.5468,-18.0401 15.7554,23.4015 -0.1986,45.856 -12.9517,44.226 -21.5076,-2.749 -79.3812,-15.5793 -136.5951,-22.6995 z"
         style="fill:#ffcc00;fill-rule:evenodd;stroke:#1b1918;stroke-width:2.52080011;stroke-linecap:butt;stroke-linejoin:miter;stroke-dasharray:none;fill-opacity:1"
         id="path825" />
      <path
         inkscape:connector-curvature="0"
         d="m 808.505,351.5454 c 10.3134,16.9028 1.9983,37.8657 -6.0189,49.75 -14.8485,22.0102 -108.5802,20.9275 -154.5706,22.8853 v -3.8146 c 61.9362,-18.322 136.1961,-49.8139 151.9615,-59.2392 2.4147,-1.4439 5.7057,-4.867 8.628,-9.5815 z"
         style="fill:#ffcc00;fill-rule:evenodd;stroke:#1b1918;stroke-width:2.52080011;stroke-linecap:butt;stroke-linejoin:miter;stroke-dasharray:none;fill-opacity:1"
         id="path827" />
      <path
         inkscape:connector-curvature="0"
         d="m 647.9155,413.8092 c 62.0194,-33.0973 133.7106,-80.5629 148.4333,-91.5492 2.7034,-2.0172 6.9006,-8.3762 10.2352,-16.7731 19.4757,23.4936 1.422,50.7798 -6.707,55.64 -15.7654,9.4253 -90.0253,40.9172 -151.9615,59.2392 z"
         style="fill:#ffcc00;fill-rule:evenodd;stroke:#1b1918;stroke-width:2.52080011;stroke-linecap:butt;stroke-linejoin:miter;stroke-dasharray:none;fill-opacity:1"
         id="path829" />
      <path
         inkscape:connector-curvature="0"
         d="m 801.2665,252.4574 c 22.6471,23.0446 2.7884,64.0519 -4.9177,69.8026 -14.7227,10.9863 -86.4139,58.4519 -148.4333,91.5492 v -2.6877 c 59.5929,-54.2254 129.4059,-125.539 143.4489,-137.8292 3.4309,-3.003 7.2985,-10.8859 9.9021,-20.8349 z"
         style="fill:#ffcc00;fill-rule:evenodd;stroke:#1b1918;stroke-width:2.52080011;stroke-linecap:butt;stroke-linejoin:miter;stroke-dasharray:none;fill-opacity:1"
         id="path831" />
      <path
         inkscape:connector-curvature="0"
         d="m 647.9155,401.8559 c 49.1667,-66.3081 112.2866,-156.7077 121.9934,-172.012 9.4732,-14.9364 10.9253,-30.9104 6.6631,-45.2981 42.6911,13.873 26.287,78.6861 14.7924,88.7465 -14.0423,12.2898 -83.8567,83.6063 -143.4489,137.8317 z"
         style="fill:#ffcc00;fill-rule:evenodd;stroke:#1b1918;stroke-width:2.52080011;stroke-linecap:butt;stroke-linejoin:miter;stroke-dasharray:none;fill-opacity:1"
         id="path833" />
      <path
         inkscape:connector-curvature="0"
         d="m 725.7421,139.217 c 41.0977,8.8828 68.0023,53.0463 44.1668,90.6269 -9.7068,15.3039 -72.8267,105.7039 -121.9934,172.0123 v -13.675 c 34.8101,-78.3214 64.6935,-154.7627 73.8198,-169.8016 12.1691,-20.0516 15.3793,-53.3374 4.0068,-79.1626 z"
         style="fill:#ffcc00;fill-rule:evenodd;stroke:#1b1918;stroke-width:2.52080011;stroke-linecap:butt;stroke-linejoin:miter;stroke-dasharray:none;fill-opacity:1"
         id="path835" />
      <path
         inkscape:connector-curvature="0"
         d="m 637.9923,381.6539 c 24.3441,-136.0432 82.9965,-259.2429 -31.1844,-265.2136 124.686,-53.4724 142.0814,57.1967 114.9274,101.9393 -9.1263,15.0389 -39.0097,91.4813 -73.8198,169.803 v -6.5287 z"
         style="fill:#ffcc00;fill-rule:evenodd;stroke:#1b1918;stroke-width:2.52080011;stroke-linecap:butt;stroke-linejoin:miter;stroke-dasharray:none;fill-opacity:1"
         id="path837" />
      <path
         inkscape:connector-curvature="0"
         d="m 663.4466,266.0638 c 13.4833,5.704 22.3717,19.6194 23.5519,33.2473"
         style="fill:#ffcc00;fill-rule:evenodd;stroke:#1b1918;stroke-width:1.88999999;stroke-linecap:butt;stroke-linejoin:miter;stroke-dasharray:none;fill-opacity:1"
         id="path839" />
      <path
         inkscape:connector-curvature="0"
         d="m 694.6667,281.7585 c 14.3684,5.704 17.9141,17.6169 15.8487,33.6052"
         style="fill:#ffcc00;fill-rule:evenodd;stroke:#1b1918;stroke-width:1.88999999;stroke-linecap:butt;stroke-linejoin:miter;stroke-dasharray:none;fill-opacity:1"
         id="path841" />
      <path
         inkscape:connector-curvature="0"
         d="m 718.6901,303.5633 c 14.3684,5.7039 9.4982,26.3035 7.4328,33.2926"
         style="fill:#ffcc00;fill-rule:evenodd;stroke:#1b1918;stroke-width:1.88999999;stroke-linecap:butt;stroke-linejoin:miter;stroke-dasharray:none;fill-opacity:1"
         id="path843" />
      <path
         inkscape:connector-curvature="0"
         d="m 732.802,331.1706 c 11.4179,8.0643 3.5003,26.9171 1.6521,31.9809"
         style="fill:#ffcc00;fill-rule:evenodd;stroke:#1b1918;stroke-width:1.88999999;stroke-linecap:butt;stroke-linejoin:miter;stroke-dasharray:none;fill-opacity:1"
         id="path845" />
      <path
         inkscape:connector-curvature="0"
         d="m 740.9518,359.5255 c 7.8771,6.4416 -3.4292,26.8139 -5.1178,30.0267"
         style="fill:#ffcc00;fill-rule:evenodd;stroke:#1b1918;stroke-width:1.88999999;stroke-linecap:butt;stroke-linejoin:miter;stroke-dasharray:none;fill-opacity:1"
         id="path847" />
      <path
         inkscape:connector-curvature="0"
         d="m 740.8067,387.5721 c 7.8772,6.4416 -9.3467,30.2178 -15.4611,33.5781"
         style="fill:#ffcc00;fill-rule:evenodd;stroke:#1b1918;stroke-width:1.88999999;stroke-linecap:butt;stroke-linejoin:miter;stroke-dasharray:none;fill-opacity:1"
         id="path849" />
      <path
         inkscape:connector-curvature="0"
         d="m 731.8522,420.6744 c 0.1875,9.6621 -13.5611,15.2367 -16.926,17.3368"
         style="fill:#ffcc00;fill-rule:evenodd;stroke:#1b1918;stroke-width:1.88999999;stroke-linecap:butt;stroke-linejoin:miter;stroke-dasharray:none;fill-opacity:1"
         id="path851" />
      <path
         inkscape:connector-curvature="0"
         d="m 718.977,438.732 c 0.1875,7.1542 -17.2454,13.4436 -21.0529,13.0357"
         style="fill:#ffcc00;fill-rule:evenodd;stroke:#1b1918;stroke-width:1.88999999;stroke-linecap:butt;stroke-linejoin:miter;stroke-dasharray:none;fill-opacity:1"
         id="path853" />
      <path
         inkscape:connector-curvature="0"
         d="m 702.1988,453.9459 c -1.2877,5.0888 -17.4261,8.0615 -21.2335,7.6536"
         style="fill:#ffcc00;fill-rule:evenodd;stroke:#1b1918;stroke-width:1.88999999;stroke-linecap:butt;stroke-linejoin:miter;stroke-dasharray:none;fill-opacity:1"
         id="path855" />
      <path
         inkscape:connector-curvature="0"
         d="m 684.2544,463.0115 c -1.2877,5.0888 -15.8358,2.154 -19.6433,1.7461"
         style="fill:#ffcc00;fill-rule:evenodd;stroke:#1b1918;stroke-width:1.88999999;stroke-linecap:butt;stroke-linejoin:miter;stroke-dasharray:none;fill-opacity:1"
         id="path857" />
    </g>
    <g
       id="Layer1003"
       transform="translate(-1242.9635,417.48391)"
       style="fill:#ffcc00;fill-opacity:1">
      <path
         inkscape:connector-curvature="0"
         d="m 486.1276,437.5689 c -44.7123,31.5045 -86.8919,67.1532 -106.9888,73.5923 -0.7437,0.2383 -1.4892,0.3919 -2.2326,0.4672 1.2435,16.9857 12.7231,27.1769 22.4738,20.4467 19.1464,-13.2153 51.445,-46.8709 86.7476,-84.7986 z"
         style="fill:#ffcc00;fill-rule:evenodd;stroke:#1b1918;stroke-width:2.52080011;stroke-linecap:butt;stroke-linejoin:miter;stroke-dasharray:none;fill-opacity:1"
         id="path860" />
      <path
         inkscape:connector-curvature="0"
         d="m 486.1276,431.914 c -48.2701,19.4822 -92.903,40.7715 -113.195,47.2723 -4.2251,1.3535 -9.7936,0.6334 -15.1524,-1.8317 -3.1942,19.6015 9.3424,37.6562 21.3586,33.8066 20.0969,-6.4387 62.2769,-42.0882 106.9888,-73.5926 z"
         style="fill:#ffcc00;fill-rule:evenodd;stroke:#1b1918;stroke-width:2.52080011;stroke-linecap:butt;stroke-linejoin:miter;stroke-dasharray:none;fill-opacity:1"
         id="path862" />
      <path
         inkscape:connector-curvature="0"
         d="m 339.9918,448.2449 c -1.7431,22.0108 20.9832,34.7721 32.9408,30.9414 20.292,-6.5008 64.9249,-27.7901 113.195,-47.2723 v -3.4439 c -57.2882,7.1381 -115.0732,19.8676 -136.6072,22.6049 -3.1556,0.4012 -6.5058,-0.6587 -9.5286,-2.8301 z"
         style="fill:#ffcc00;fill-rule:evenodd;stroke:#1b1918;stroke-width:2.52080011;stroke-linecap:butt;stroke-linejoin:miter;stroke-dasharray:none;fill-opacity:1"
         id="path864" />
      <path
         inkscape:connector-curvature="0"
         d="m 486.1276,424.8584 c -42.7669,-1.7629 -125.1183,-1.101 -149.631,-18.0095 -15.8434,23.4015 0.1996,45.8561 13.0238,44.2261 21.5336,-2.7373 79.3187,-15.4679 136.6072,-22.6063 z"
         style="fill:#ffcc00;fill-rule:evenodd;stroke:#1b1918;stroke-width:2.52080011;stroke-linecap:butt;stroke-linejoin:miter;stroke-dasharray:none;fill-opacity:1"
         id="path866" />
      <path
         inkscape:connector-curvature="0"
         d="m 325.3923,352.2552 c -10.3708,16.9028 -2.0093,37.8656 6.0526,49.75 14.8513,21.8923 108.1762,20.9382 154.6827,22.8542 v -4.0054 c -62.1298,-18.353 -136.2689,-49.6299 -152.0594,-59.0174 -2.4279,-1.4438 -5.7371,-4.8669 -8.6759,-9.5814 z"
         style="fill:#ffcc00;fill-rule:evenodd;stroke:#1b1918;stroke-width:2.52080011;stroke-linecap:butt;stroke-linejoin:miter;stroke-dasharray:none;fill-opacity:1"
         id="path868" />
      <path
         inkscape:connector-curvature="0"
         d="M 486.1276,414.1214 C 423.9357,381.0431 352.362,333.9122 337.6164,322.9698 c -2.7187,-2.0172 -6.9391,-8.3762 -10.2926,-16.7731 -19.584,23.4936 -1.4299,50.7798 6.7444,55.6399 15.7905,9.3875 89.9296,40.6644 152.0594,59.0174 z"
         style="fill:#ffcc00;fill-rule:evenodd;stroke:#1b1918;stroke-width:2.52080011;stroke-linecap:butt;stroke-linejoin:miter;stroke-dasharray:none;fill-opacity:1"
         id="path870" />
      <path
         inkscape:connector-curvature="0"
         d="m 332.6708,253.1671 c -22.7728,23.0447 -2.8037,64.052 4.9456,69.8027 14.7456,10.9424 86.3193,58.0733 148.5112,91.1516 v -2.9677 C 426.3683,357.0136 356.6903,286.2412 342.6284,274.0021 c -3.4499,-3.0031 -7.3392,-10.886 -9.9576,-20.835 z"
         style="fill:#ffcc00;fill-rule:evenodd;stroke:#1b1918;stroke-width:2.52080011;stroke-linecap:butt;stroke-linejoin:miter;stroke-dasharray:none;fill-opacity:1"
         id="path872" />
      <path
         inkscape:connector-curvature="0"
         d="M 486.1276,401.5605 C 436.797,335.3474 373.9149,245.7811 364.2031,230.5537 c -9.526,-14.9364 -10.9856,-30.9104 -6.6998,-45.2981 -42.9294,13.8729 -26.4335,78.6861 -14.8749,88.7465 14.0619,12.2391 83.7402,83.0126 143.4992,137.153 z"
         style="fill:#ffcc00;fill-rule:evenodd;stroke:#1b1918;stroke-width:2.52080011;stroke-linecap:butt;stroke-linejoin:miter;stroke-dasharray:none;fill-opacity:1"
         id="path874" />
      <path
         inkscape:connector-curvature="0"
         d="m 408.6164,139.9268 c -41.3266,8.8827 -68.3813,53.0463 -44.4133,90.6269 9.7122,15.2267 72.5942,104.7948 121.9245,171.0078 v -14.3476 c -34.6829,-77.7327 -64.3702,-153.1932 -73.4822,-168.1245 -12.237,-20.0516 -15.4651,-53.3374 -4.029,-79.1626 z"
         style="fill:#ffcc00;fill-rule:evenodd;stroke:#1b1918;stroke-width:2.52080011;stroke-linecap:butt;stroke-linejoin:miter;stroke-dasharray:none;fill-opacity:1"
         id="path876" />
      <path
         inkscape:connector-curvature="0"
         d="M 496.7278,381.6539 C 472.1711,245.8926 413.5955,123.1105 528.2129,117.1501 402.8325,63.6776 385.3403,174.3468 412.6454,219.0894 c 9.1113,14.9313 38.799,90.3932 73.4822,168.127 v -5.5625 z"
         style="fill:#ffcc00;fill-rule:evenodd;stroke:#1b1918;stroke-width:2.52080011;stroke-linecap:butt;stroke-linejoin:miter;stroke-dasharray:none;fill-opacity:1"
         id="path878" />
      <path
         inkscape:connector-curvature="0"
         d="m 471.2584,266.7736 c -13.5579,5.7039 -22.496,19.6194 -23.683,33.2473"
         style="fill:#ffcc00;fill-rule:evenodd;stroke:#1b1918;stroke-width:1.88999999;stroke-linecap:butt;stroke-linejoin:miter;stroke-dasharray:none;fill-opacity:1"
         id="path880" />
      <path
         inkscape:connector-curvature="0"
         d="m 439.8643,282.4683 c -14.448,5.7039 -18.0133,17.6169 -15.9365,33.6052"
         style="fill:#ffcc00;fill-rule:evenodd;stroke:#1b1918;stroke-width:1.88999999;stroke-linecap:butt;stroke-linejoin:miter;stroke-dasharray:none;fill-opacity:1"
         id="path882" />
      <path
         inkscape:connector-curvature="0"
         d="m 415.7077,304.2731 c -14.4487,5.7039 -9.5514,26.3034 -7.4742,33.2926"
         style="fill:#ffcc00;fill-rule:evenodd;stroke:#1b1918;stroke-width:1.88999999;stroke-linecap:butt;stroke-linejoin:miter;stroke-dasharray:none;fill-opacity:1"
         id="path884" />
      <path
         inkscape:connector-curvature="0"
         d="m 401.5169,331.8804 c -11.4815,8.0643 -3.5196,26.9171 -1.6614,31.9809"
         style="fill:#ffcc00;fill-rule:evenodd;stroke:#1b1918;stroke-width:1.88999999;stroke-linecap:butt;stroke-linejoin:miter;stroke-dasharray:none;fill-opacity:1"
         id="path886" />
      <path
         inkscape:connector-curvature="0"
         d="m 393.3218,360.2353 c -7.9212,6.4415 3.4485,26.8139 5.1463,30.0266"
         style="fill:#ffcc00;fill-rule:evenodd;stroke:#1b1918;stroke-width:1.88999999;stroke-linecap:butt;stroke-linejoin:miter;stroke-dasharray:none;fill-opacity:1"
         id="path888" />
      <path
         inkscape:connector-curvature="0"
         d="m 393.4675,388.2819 c -7.9208,6.4416 9.3989,30.2178 15.5475,33.578"
         style="fill:#ffcc00;fill-rule:evenodd;stroke:#1b1918;stroke-width:1.88999999;stroke-linecap:butt;stroke-linejoin:miter;stroke-dasharray:none;fill-opacity:1"
         id="path890" />
      <path
         inkscape:connector-curvature="0"
         d="m 402.4717,421.3841 c -0.1883,9.6622 13.6372,15.2368 17.0206,17.3368"
         style="fill:#ffcc00;fill-rule:evenodd;stroke:#1b1918;stroke-width:1.88999999;stroke-linecap:butt;stroke-linejoin:miter;stroke-dasharray:none;fill-opacity:1"
         id="path892" />
      <path
         inkscape:connector-curvature="0"
         d="m 415.4191,439.4418 c -0.1883,7.1542 17.3414,13.4436 21.1704,13.0356"
         style="fill:#ffcc00;fill-rule:evenodd;stroke:#1b1918;stroke-width:1.88999999;stroke-linecap:butt;stroke-linejoin:miter;stroke-dasharray:none;fill-opacity:1"
         id="path894" />
      <path
         inkscape:connector-curvature="0"
         d="m 432.2904,454.6557 c 1.2953,5.0888 17.5233,8.0615 21.3519,7.6536"
         style="fill:#ffcc00;fill-rule:evenodd;stroke:#1b1918;stroke-width:1.88999999;stroke-linecap:butt;stroke-linejoin:miter;stroke-dasharray:none;fill-opacity:1"
         id="path896" />
      <path
         inkscape:connector-curvature="0"
         d="m 450.3352,463.7213 c 1.2949,5.0888 15.9237,2.154 19.7523,1.746"
         style="fill:#ffcc00;fill-rule:evenodd;stroke:#1b1918;stroke-width:1.88999999;stroke-linecap:butt;stroke-linejoin:miter;stroke-dasharray:none;fill-opacity:1"
         id="path898" />
    </g>
    <g
       id="Layer1004"
       transform="translate(-1242.9635,417.48391)"
       style="fill:#ffcc00;fill-opacity:1">
      <path
         inkscape:connector-curvature="0"
         d="m 603.0651,554.4085 83.2444,171.7427 c 7.9207,24.4374 -15.5097,33.5376 -25.8063,23.5168 -3.6306,23.5455 -15.007,27.5127 -32.8,15.2579 -8.3705,18.0266 -20.3984,20.1327 -35.4562,9.0474 -15.6908,20.8603 -32.0939,22.1109 -49.3574,-0.3033 -15.4936,13.625 -26.2424,6.7345 -35.0615,-8.4969 -14.0945,9.2238 -31.6284,8.9466 -32.6815,-14.5742 -11.4142,7.0003 -34.7361,3.2717 -27.9605,-26.4495 L 532.4784,555.174 c 23.0907,13.2039 48.7322,11.8679 70.5867,-0.7655 z"
         style="fill:#ffcc00;fill-rule:evenodd;stroke:#1b1918;stroke-width:2.52080011;stroke-linecap:butt;stroke-linejoin:miter;stroke-dasharray:none;fill-opacity:1"
         id="path901" />
      <path
         inkscape:connector-curvature="0"
         d="M 594.6124,558.6493 660.5032,749.668"
         style="fill:#ffcc00;fill-rule:evenodd;stroke:#1b1918;stroke-width:2.52080011;stroke-linecap:butt;stroke-linejoin:miter;stroke-dasharray:none;fill-opacity:1"
         id="path903" />
      <path
         inkscape:connector-curvature="0"
         d="m 585.1421,561.9753 42.5611,202.9506"
         style="fill:#ffcc00;fill-rule:evenodd;stroke:#1b1918;stroke-width:2.52080011;stroke-linecap:butt;stroke-linejoin:miter;stroke-dasharray:none;fill-opacity:1"
         id="path905" />
      <path
         inkscape:connector-curvature="0"
         d="M 575.2095,563.981 592.247,773.9733"
         style="fill:#ffcc00;fill-rule:evenodd;stroke:#1b1918;stroke-width:2.52080011;stroke-linecap:butt;stroke-linejoin:miter;stroke-dasharray:none;fill-opacity:1"
         id="path907" />
      <path
         inkscape:connector-curvature="0"
         d="M 561.4945,564.2871 542.8896,773.67"
         style="fill:#ffcc00;fill-rule:evenodd;stroke:#1b1918;stroke-width:2.52080011;stroke-linecap:butt;stroke-linejoin:miter;stroke-dasharray:none;fill-opacity:1"
         id="path909" />
      <path
         inkscape:connector-curvature="0"
         d="M 551.5512,562.7469 507.8281,765.1731"
         style="fill:#ffcc00;fill-rule:evenodd;stroke:#1b1918;stroke-width:2.52080011;stroke-linecap:butt;stroke-linejoin:miter;stroke-dasharray:none;fill-opacity:1"
         id="path911" />
      <path
         inkscape:connector-curvature="0"
         d="M 541.9655,559.7527 475.1466,750.5989"
         style="fill:#ffcc00;fill-rule:evenodd;stroke:#1b1918;stroke-width:2.52080011;stroke-linecap:butt;stroke-linejoin:miter;stroke-dasharray:none;fill-opacity:1"
         id="path913" />
    </g>
    <path
       inkscape:connector-curvature="0"
       d="m -811.4825,1051.9773 c 90.01,-32.9168 181.1451,-33.962 273.5159,0 v 29.8006 c -93.0973,-30.3307 -184.3529,-28.3357 -273.5159,-0.4426 z"
       style="fill:#006227;fill-rule:evenodd;stroke:#1b1918;stroke-width:2.52080011;stroke-linecap:butt;stroke-linejoin:miter;stroke-dasharray:none;fill-opacity:1"
       id="path916" />
    <path
       inkscape:connector-curvature="0"
       d="m -785.967,1050.1245 6.2829,-1.7461 v 0.7109 c -0.7673,0.2282 -1.2852,0.5437 -1.5528,0.9405 -0.2679,0.3922 -0.3993,1.0438 -0.3993,1.9461 v 5.9679 l 3.1763,-4.4562 c 0.5047,-0.7101 0.9827,-1.4981 1.431,-2.354 0.4515,-0.8612 0.6754,-1.5182 0.6754,-1.9818 0,-0.6301 -0.4386,-0.8409 -1.3209,-0.6212 v -0.7108 l 5.9104,-1.6425 v 0.7109 c -1.1145,0.4661 -2.3033,1.5777 -3.5714,3.3366 l -4.1687,5.7808 4.5148,5.671 c 1.5403,1.9561 2.8652,2.7773 3.9708,2.4701 v 0.7109 l -4.1505,1.1534 -6.4672,-8.173 v 6.916 c 0,1.512 0.6537,2.1164 1.9521,1.801 v 0.7109 l -6.2829,1.746 v -0.7108 c 0.7726,-0.2244 1.2902,-0.5348 1.5535,-0.9406 0.2675,-0.4018 0.3993,-1.0537 0.3993,-1.9457 v -12.7781 c 0,-0.9627 -0.145,-1.5524 -0.4347,-1.7596 -0.2936,-0.2104 -0.7984,-0.2265 -1.5181,-0.042 z m 22.6017,-6.717 0.7651,-0.1815 4.5866,14.0051 c 0.3365,1.0395 0.708,1.8736 1.1102,2.4891 0.3983,0.6215 0.8894,0.878 1.4685,0.7658 v 0.7109 l -4.653,1.1027 v -0.7109 l 0.3007,-0.071 c 0.1461,-0.035 0.2211,-0.2133 0.2211,-0.5358 0,-0.1011 -0.0175,-0.2029 -0.0532,-0.3154 l -1.5567,-4.7677 -5.6614,1.3417 c -0.5973,2.0518 -0.8934,3.5435 -0.8934,4.4758 0,0.494 0.1415,0.8637 0.4201,1.1156 0.2833,0.2454 0.6501,0.3143 1.1102,0.2054 l 0.6855,-0.1622 v 0.7108 l -5.8075,1.376 v -0.7108 c 0.9684,-0.2851 1.8485,-1.6732 2.6451,-4.1551 z m -0.4512,4.3562 -2.7248,8.5037 5.082,-1.2042 z m 8.9542,-5.7375 8.2962,-1.6307 c 1.238,-0.2432 2.1596,-0.1522 2.7748,0.2661 0.614,0.4187 0.9169,1.176 0.9169,2.2547 0,1.2149 -0.3429,2.4112 -1.033,3.5954 -0.6948,1.1852 -1.7325,2.3615 -3.1131,3.5253 l 2.9084,4.5247 c 1.3045,2.0268 2.5112,2.9691 3.6157,2.8173 v 0.7109 l -3.1303,0.6155 c -0.6283,0.1232 -1.1848,-0.1904 -1.6703,-0.942 l -5.1702,-8.0822 v 7.3142 c 0,1.5121 0.6726,2.1661 2.0128,1.9479 v 0.7108 l -6.4079,1.2595 v -0.7108 c 0.7837,-0.164 1.3091,-0.4337 1.581,-0.8198 0.2668,-0.3801 0.4004,-1.0213 0.4004,-1.9132 v -12.7935 c 0,-0.9527 -0.1464,-1.5485 -0.4404,-1.7785 -0.2987,-0.2333 -0.8109,-0.2894 -1.541,-0.1608 z m 4.3951,0.5679 v 6.1598 c 1.0198,0.6361 1.8928,0.883 2.623,0.7394 0.7662,-0.1504 1.3406,-0.5558 1.7235,-1.221 0.3833,-0.6601 0.5744,-1.5695 0.5744,-2.734 0,-1.4164 -0.2847,-2.4894 -0.8505,-3.2199 -0.5655,-0.7309 -1.2513,-1.0141 -2.0576,-0.8559 -0.7169,0.1411 -1.3845,0.514 -2.0128,1.1316 z m 9.4953,-4.1589 0.5776,-0.09 c 0.1165,0.4254 0.2869,0.6201 0.5151,0.5844 l 11.4636,-1.7957 c 0.2997,-0.047 0.4476,-0.2919 0.4476,-0.7355 l 0.6272,-0.098 v 5.6103 l -0.9316,0.1461 c -0.0225,-2.8198 -1.3524,-4.0225 -3.9854,-3.61 l -0.7072,0.1108 v 15.1221 c 0,1.522 0.6622,2.2047 1.9925,2.0314 v 0.7109 l -6.4169,1.0051 v -0.7108 c 0.788,-0.1336 1.3166,-0.3826 1.5899,-0.758 0.2683,-0.3697 0.4072,-1.0066 0.4072,-1.8986 v -15.1221 l -0.9091,0.1426 c -2.4226,0.3793 -3.6717,1.9864 -3.7478,4.8216 l -0.9227,0.1443 z m 20.98,-1.5636 c -0.7869,0.1072 -1.3178,0.3408 -1.5917,0.6955 -0.2744,0.3497 -0.4094,0.9756 -0.4094,1.8675 v 12.7935 c 0,1.512 0.6701,2.22 2.0011,2.1093 v 0.7108 l -6.4398,0.7545 v -0.7109 c 0.7912,-0.1025 1.322,-0.3311 1.5917,-0.6955 0.2744,-0.3597 0.4094,-0.9905 0.4094,-1.8825 v -12.7934 c 0,-0.9527 -0.1482,-1.5599 -0.4451,-1.8128 -0.3011,-0.2569 -0.8183,-0.353 -1.556,-0.2815 v -0.7109 l 6.4398,-0.7544 z m 1.5753,-1.1291 6.4508,-0.629 v 0.7108 c -0.7883,0.092 -1.3195,0.3151 -1.5946,0.6644 -0.275,0.3444 -0.4097,0.9727 -0.4097,1.875 v 5.9679 l 3.261,-3.8914 c 0.5183,-0.6201 1.0091,-1.3235 1.4688,-2.0993 0.464,-0.7813 0.6937,-1.3982 0.6937,-1.8618 0,-0.6301 -0.4504,-0.9188 -1.3563,-0.8559 v -0.7108 l 6.0683,-0.5919 v 0.7108 c -1.1442,0.2683 -2.3651,1.1684 -3.6668,2.7016 l -4.2793,5.0398 4.6347,6.4738 c 1.5814,2.2297 2.9417,3.2866 4.0772,3.1759 v 0.7108 l -4.2615,0.4158 -6.6398,-9.3231 v 6.9159 c 0,1.5121 0.6712,2.2329 2.0043,2.1483 v 0.7108 l -6.4508,0.6291 v -0.7109 c 0.793,-0.087 1.3245,-0.3054 1.5949,-0.6644 0.2744,-0.3544 0.4101,-0.9827 0.4101,-1.8746 v -12.7781 c 0,-0.9627 -0.149,-1.5782 -0.4462,-1.8368 -0.3018,-0.2629 -0.8201,-0.3686 -1.5588,-0.3118 z m 23.2932,-2.6991 0.7809,-0.046 4.6827,14.8185 c 0.3436,1.0988 0.7226,1.9989 1.1334,2.6858 0.4068,0.6923 0.9084,1.0359 1.4995,1.0263 v 0.7108 l -4.7505,0.2776 v -0.7108 l 0.3072,-0.018 c 0.1486,-0.01 0.2254,-0.1743 0.2254,-0.4969 0,-0.1011 -0.0178,-0.2057 -0.0539,-0.3247 l -1.5896,-5.0434 -5.78,0.3375 c -0.6098,1.9461 -0.9123,3.3853 -0.9123,4.3176 0,0.494 0.1447,0.8888 0.4293,1.1899 0.289,0.2958 0.6634,0.4297 1.1335,0.4026 l 0.6997,-0.041 v 0.7108 l -5.9293,0.3465 v -0.7108 c 0.9888,-0.1133 1.8875,-1.3453 2.7005,-3.6861 z m -0.4604,4.2765 -2.782,8.0205 5.1885,-0.3029 z m 26.5857,-4.9641 h 0.6194 v 5.6457 h -0.9674 c -0.0139,-1.4771 -0.3936,-2.5458 -1.1395,-3.206 -0.7419,-0.6604 -1.8721,-0.988 -3.3917,-0.988 h -1.0037 c -0.1086,1.0688 -0.1583,2.0315 -0.1583,2.8784 0,1.6835 0.294,2.9234 0.877,3.72 0.5883,0.7962 1.5378,1.1945 2.8444,1.1945 h 1.2978 v 1.0334 l -4.8609,0.1511 v 8.4884 h 1.4017 c 2.9709,0 4.6712,-1.5725 5.1006,-4.7231 h 0.9408 l -1.0852,6.084 h -0.6601 c -0.009,-0.4333 -0.1768,-0.6501 -0.5069,-0.6501 h -9.6539 v -0.7108 c 0.7912,-0.01 1.3245,-0.1765 1.6007,-0.4991 0.2757,-0.3275 0.4111,-0.9423 0.4111,-1.8446 v -12.7781 c 0,-0.9627 -0.1532,-1.5928 -0.4565,-1.8803 -0.3072,-0.2922 -0.823,-0.4487 -1.5553,-0.4637 v -0.7108 h 9.455 c 0.5744,0 0.873,-0.2469 0.8909,-0.7409 z m 2.5819,0.7562 6.4744,0.1258 v 0.7108 c -0.7912,-4e-4 -1.3249,0.1607 -1.6007,0.478 -0.2761,0.3122 -0.4111,0.9248 -0.4111,1.8271 v 5.9679 l 3.2731,-3.51 c 0.5201,-0.5597 1.0123,-1.2052 1.4738,-1.9275 0.4658,-0.7265 0.6966,-1.317 0.6966,-1.7807 0,-0.6301 -0.4522,-0.9712 -1.361,-1.0144 v -0.7109 l 6.0901,0.1186 v 0.7109 c -1.1484,0.1339 -2.3737,0.8916 -3.6803,2.2722 l -4.2955,4.5387 4.6523,7.0166 c 1.5871,2.4148 2.9527,3.6311 4.0918,3.6532 v 0.7109 l -4.2768,-0.083 -6.6641,-10.1001 v 6.916 c 0,1.512 0.6733,2.3111 2.0118,2.3826 v 0.7108 l -6.4744,-0.1257 v -0.7109 c 0.7955,0 1.3291,-0.1507 1.6006,-0.4779 0.2754,-0.3222 0.4115,-0.9348 0.4115,-1.8268 v -12.7781 c 0,-0.9627 -0.1493,-1.5956 -0.4479,-1.8889 -0.3029,-0.2983 -0.823,-0.4647 -1.5642,-0.494 z m 23.0189,0.5923 0.7812,0.046 4.6827,15.365 c 0.3432,1.1395 0.7226,2.084 1.1334,2.8187 0.4065,0.7395 0.908,1.1417 1.4992,1.2013 v 0.7109 l -4.7505,-0.2776 v -0.7108 l 0.3072,0.018 c 0.1486,0.01 0.2257,-0.1478 0.2257,-0.4704 0,-0.1011 -0.0178,-0.2079 -0.0543,-0.3311 l -1.5892,-5.2292 -5.78,-0.3376 c -0.6098,1.8746 -0.9123,3.2788 -0.9123,4.2112 0,0.494 0.1443,0.9058 0.429,1.2398 0.289,0.3294 0.6637,0.5076 1.1334,0.5348 l 0.6998,0.041 v 0.7109 l -5.9293,-0.3465 v -0.7108 c 0.9891,0 1.8875,-1.1245 2.7005,-3.3703 z m -0.4605,4.2222 -2.7815,7.6961 5.1881,0.3029 z m 16.1677,-2.0168 8.3376,0.977 c 1.4524,0.17 2.5137,0.6069 3.1888,1.3113 0.6791,0.7044 1.0159,1.5606 1.0159,2.5637 0,1.6028 -0.6655,3.0423 -1.9968,4.3229 -1.3309,1.2752 -2.698,1.8311 -4.1057,1.666 -0.3058,-0.036 -0.6248,-0.1186 -0.9577,-0.2532 -0.3376,-0.1301 -0.6837,-0.3069 -1.0434,-0.5305 v 6.2958 c 0,1.5121 0.6701,2.3769 2.0011,2.578 v 0.7109 l -6.4398,-0.7545 v -0.7108 c 0.7916,0.083 1.3224,-0.021 1.5921,-0.3126 0.2743,-0.2954 0.409,-0.8941 0.409,-1.7964 v -12.7934 c 0,-0.9527 -0.1483,-1.595 -0.4451,-1.9172 -0.3015,-0.3275 -0.8187,-0.5447 -1.556,-0.6462 z m 4.4387,2.1886 v 5.8925 c 0.5622,0.5398 1.097,0.9552 1.6013,1.2513 0.5034,0.2958 0.9756,0.4669 1.4164,0.5187 0.8273,0.097 1.4435,-0.1382 1.8571,-0.7098 0.4137,-0.5715 0.6208,-1.4795 0.6208,-2.7198 0,-1.2802 -0.2657,-2.3854 -0.7962,-3.3195 -0.5351,-0.9345 -1.3042,-1.4631 -2.3161,-1.5817 -0.8137,-0.095 -1.61,0.1289 -2.3833,0.6683 z m 14.2419,-0.2686 0.7748,0.1214 4.6434,15.819 c 0.3407,1.1728 0.7165,2.154 1.1241,2.9285 0.4029,0.779 0.9002,1.2298 1.4867,1.3466 v 0.7109 l -4.7109,-0.738 v -0.7109 l 0.3047,0.048 c 0.1476,0.023 0.2236,-0.1261 0.2236,-0.4487 0,-0.101 -0.0178,-0.2096 -0.0535,-0.3361 l -1.5764,-5.3835 -5.7314,-0.8977 c -0.6044,1.8154 -0.9048,3.1903 -0.9048,4.1226 0,0.494 0.1436,0.9198 0.4258,1.2813 0.2864,0.3576 0.6579,0.5719 1.1237,0.6448 l 0.6941,0.1089 v 0.7109 l -5.8797,-0.9213 v -0.7108 c 0.9806,0.098 1.8718,-0.9416 2.6777,-3.1088 z m -0.4565,4.1779 -2.7584,7.426 5.1449,0.8062 z m 9.1706,-1.8035 6.3773,1.2534 v 0.7108 c -0.7794,-0.1382 -1.3049,-0.07 -1.5764,0.199 -0.2718,0.2643 -0.4054,0.853 -0.4054,1.7553 v 5.9679 l 3.2242,-2.9398 c 0.5118,-0.469 0.9973,-1.0288 1.4517,-1.6707 0.4586,-0.6454 0.6858,-1.1955 0.6858,-1.6592 0,-0.6301 -0.4451,-1.0502 -1.3402,-1.2517 v -0.7108 l 5.9982,1.1791 v 0.7109 c -1.1313,-0.066 -2.3376,0.4779 -3.625,1.6314 l -4.2304,3.7907 4.5823,7.8268 c 1.5628,2.6912 2.908,4.145 4.0304,4.3654 v 0.7109 l -4.2129,-0.828 -6.5641,-11.2607 v 6.9159 c 0,1.5121 0.6637,2.4291 1.9818,2.7334 v 0.7108 l -6.3773,-1.2534 v -0.7109 c 0.7841,0.144 1.3096,0.081 1.5768,-0.1993 0.2714,-0.274 0.4054,-0.863 0.4054,-1.7549 v -12.7781 c 0,-0.9627 -0.1472,-1.6218 -0.4408,-1.9668 -0.299,-0.3508 -0.8109,-0.608 -1.5414,-0.7666 z m 17.6315,11.735 c -0.3965,-0.5355 -0.6962,-1.0766 -0.8987,-1.6228 -0.2029,-0.5408 -0.3044,-1.0863 -0.3044,-1.6257 0,-1.4213 0.5687,-2.5151 1.705,-3.2863 1.137,-0.7709 2.4633,-0.9587 3.9875,-0.5665 0.7666,0.1972 1.7846,0.7115 3.0577,1.5381 v 4.6373 l -0.9383,-0.2415 c -0.0704,-1.3088 -0.4141,-2.4504 -1.0356,-3.427 -0.6165,-0.9752 -1.3742,-1.5785 -2.269,-1.8089 -0.7312,-0.1883 -1.3395,-0.088 -1.8153,0.3089 -0.4755,0.3969 -0.718,0.9849 -0.718,1.7711 0,0.7612 0.2379,1.5281 0.7094,2.3097 0.4672,0.7809 1.5907,2.0829 3.3706,3.9118 1.3524,1.3817 2.2647,2.4533 2.7362,3.2149 0.4673,0.7701 0.6962,1.6256 0.6962,2.568 0,1.5478 -0.6211,2.7641 -1.8635,3.6489 -1.2427,0.8848 -2.6526,1.127 -4.2254,0.7219 -1.1281,-0.2901 -2.3926,-0.9277 -3.7986,-1.9097 v -5.3127 l 0.9166,0.2357 c 0,1.4971 0.379,2.8445 1.137,4.0426 0.758,1.1984 1.6567,1.9339 2.6962,2.2014 0.9563,0.2462 1.7143,0.1186 2.269,-0.379 0.5555,-0.4972 0.833,-1.2373 0.833,-2.22 0,-0.857 -0.229,-1.6721 -0.6873,-2.4355 -0.4536,-0.7565 -1.4938,-1.9621 -3.1105,-3.6081 -0.8859,-0.8984 -1.7054,-1.7897 -2.4498,-2.6666 z m 16.2595,-2.8173 c -0.768,-0.1983 -1.2856,-0.1708 -1.5535,0.078 -0.2676,0.2429 -0.3987,0.8166 -0.3987,1.7085 v 12.7935 c 0,1.512 0.6534,2.4801 1.9522,2.8862 v 0.7109 l -6.2833,-1.7461 v -0.7108 c 0.7722,0.2043 1.2898,0.1818 1.5535,-0.078 0.2675,-0.2533 0.399,-0.8316 0.399,-1.7236 v -12.7934 c 0,-0.9527 -0.1443,-1.6178 -0.4344,-1.9857 -0.294,-0.374 -0.7984,-0.6709 -1.5181,-0.8856 v -0.7108 l 6.2833,1.746 z"
       style="fill:#ffe900;fill-rule:evenodd;stroke:#ffe900;stroke-width:1.25989997;stroke-linecap:butt;stroke-linejoin:miter;stroke-dasharray:none;fill-opacity:1;stroke-opacity:1"
       id="path918" />
    <path
       inkscape:connector-curvature="0"
       d="m -552.3536,1011.3444 c -8.0919,-54.73979 -4.3908,-98.63619 56.1272,-90.28679 77.8945,55.5946 -9.1467,98.20609 -5.311,151.73539 21.0268,45.0805 17.0964,66.4948 -7.5121,68.3016 -17.2575,10.9978 -32.5367,13.2375 -46.2361,8.4801 -0.2461,-1.8667 -0.6897,-3.8453 -1.3684,-5.9396 l -19.7523,-40.7512 c 44.709,19.9823 82.4829,-0.1707 51.5639,-24.2802 z m 32.1596,-40.20709 c -5.4486,-9.9769 3.3416,-14.3973 8.0479,-3.5496 12.3998,31.857 6.0425,40.20639 -16.1359,72.25449 l -1.911,-2.463 c 11.5578,-13.2924 20.2491,-27.7505 21.3339,-39.19369 0.8988,-9.481 -5.9729,-16.7359 -11.3349,-27.0482 z"
       style="fill:#006227;fill-rule:evenodd;stroke:#1b1918;stroke-width:2.52080011;stroke-linecap:butt;stroke-linejoin:miter;stroke-dasharray:none;fill-opacity:1"
       id="path920" />
    <path
       inkscape:connector-curvature="0"
       d="m -517.9029,1056.4031 c 40.7454,49.516 -3.9907,92.3851 -40.9766,82.6404"
       style="fill:#006227;fill-rule:evenodd;stroke:#1b1918;stroke-width:2.52080011;stroke-linecap:butt;stroke-linejoin:miter;stroke-dasharray:none;fill-opacity:1"
       id="path922" />
    <path
       inkscape:connector-curvature="0"
       d="m -502.3222,1102.7925 c 4.3212,5.0309 6.597,22.0702 -6.7273,38.3021"
       style="fill:#006227;fill-rule:evenodd;stroke:#1b1918;stroke-width:2.52080011;stroke-linecap:butt;stroke-linejoin:miter;stroke-dasharray:none;fill-opacity:1"
       id="path924" />
    <g
       id="Layer1005"
       transform="translate(-1242.9635,417.48391)"
       style="fill:#ffcc00;fill-opacity:1">
      <path
         inkscape:connector-curvature="0"
         d="m 673.8686,586.547 15.4904,-17.2607 c 0.7908,11.0467 10.5862,19.14 6.8041,26.3506 0.8505,-3.0584 7.0491,3.8021 3.5649,8.9063 0.4308,1.4428 0.9466,-0.5715 2.333,0.4583 1.0648,0.7905 1.2234,3.7886 2.6976,5.0299 3.2435,2.7308 8.3266,4.3297 11.4211,7.2817 5.4503,5.1995 8.4919,14.1983 11.8282,20.2577 8.0672,14.6502 4.1529,31.1472 -9.8204,28.7664 -3.6331,3.0709 -7.6832,2.8552 -8.8384,-0.2058 -5.6014,8.1166 -11.7854,7.9608 -18.3673,2.1458 2.7162,-1.5467 7.4981,-2.9466 8.8863,-7.8861 1.3881,-4.9399 -3.1242,-16.6663 -0.5555,-21.7537 -2.3447,-2.8673 -3.2642,-9.4553 -6.2051,-12.0112 -4.1622,-3.6171 -10.1555,-3.3031 -10.7816,-8.7619 0.1196,4.459 -2.0122,6.539 -5.2889,7.4106 -8.0104,-2.3411 -16.0112,-4.4204 -24.003,-6.2394 2.4208,-10.7466 8.1111,-15.8147 22.1491,-6.3833 -3.8,-6.8205 2.0372,-10.1426 5.9883,-6.5623 -3.0338,-1.9282 -2.6273,-7.4371 1.477,-7.9175 -3.4663,0.1229 -6.344,-7.7747 -8.7798,-11.6254 z"
         style="fill:#ffcc00;fill-rule:evenodd;stroke:#1b1918;stroke-width:2.52080011;stroke-linecap:butt;stroke-linejoin:miter;stroke-dasharray:none;fill-opacity:1"
         id="path926" />
      <path
         inkscape:connector-curvature="0"
         d="m 713.1109,626.5269 c 5.7475,7.1867 14.9442,22.7943 5.0766,39.8103"
         style="fill:#ffcc00;fill-rule:evenodd;stroke:#1b1918;stroke-width:1.88999999;stroke-linecap:butt;stroke-linejoin:miter;stroke-dasharray:none;fill-opacity:1"
         id="path928" />
      <path
         inkscape:connector-curvature="0"
         d="m 703.1494,624.6123 c 5.7475,7.1867 14.0019,28.3388 6.1997,41.5191"
         style="fill:#ffcc00;fill-rule:evenodd;stroke:#1b1918;stroke-width:1.88999999;stroke-linecap:butt;stroke-linejoin:miter;stroke-dasharray:none;fill-opacity:1"
         id="path930" />
    </g>
    <path
       inkscape:connector-curvature="0"
       d="m -597.4573,993.05531 c 7.8628,-6.0869 25.7315,8.59119 25.0578,22.88419 -11.4835,2.6509 -31.9766,-14.4723 -25.0578,-22.88419 z"
       style="fill:#ffcc00;fill-rule:evenodd;stroke:#1b1918;stroke-width:1.88999999;stroke-linecap:butt;stroke-linejoin:miter;stroke-dasharray:none;fill-opacity:1"
       id="path933" />
    <path
       inkscape:connector-curvature="0"
       d="m -598.584,995.13821 2.3908,-2.8488 c 7.1238,6.3323 13.6676,12.75669 19.2775,19.32829 -6.5065,-6.3512 -13.6832,-11.89969 -21.6683,-16.47949 z"
       style="fill:#ffcc00;fill-rule:evenodd;stroke:#1b1918;stroke-width:0.63010001;stroke-linecap:butt;stroke-linejoin:miter;stroke-dasharray:none;fill-opacity:1"
       id="path935" />
    <path
       inkscape:connector-curvature="0"
       d="m -578.0019,984.05331 c 7.8629,-6.0869 25.7315,8.5912 25.0578,22.88419 -11.4835,2.6509 -31.9766,-14.47229 -25.0578,-22.88419 z"
       style="fill:#ffcc00;fill-rule:evenodd;stroke:#1b1918;stroke-width:1.88999999;stroke-linecap:butt;stroke-linejoin:miter;stroke-dasharray:none;fill-opacity:1"
       id="path937" />
    <path
       inkscape:connector-curvature="0"
       d="m -579.1286,986.13611 2.3908,-2.8487 c 7.1238,6.3322 13.6676,12.7567 19.2775,19.32819 -6.5065,-6.35109 -13.6832,-11.89969 -21.6683,-16.47949 z"
       style="fill:#ffcc00;fill-rule:evenodd;stroke:#1b1918;stroke-width:0.63010001;stroke-linecap:butt;stroke-linejoin:miter;stroke-dasharray:none;fill-opacity:1"
       id="path939" />
    <path
       inkscape:connector-curvature="0"
       d="m -558.3265,965.89311 c 9.6925,-2.2201 19.7405,18.607 13.1239,31.2944 -11.5347,-2.4194 -22.9368,-26.5682 -13.1239,-31.2944 z"
       style="fill:#ffcc00;fill-rule:evenodd;stroke:#1b1918;stroke-width:1.88999999;stroke-linecap:butt;stroke-linejoin:miter;stroke-dasharray:none;fill-opacity:1"
       id="path941" />
    <path
       inkscape:connector-curvature="0"
       d="m -560.224,967.30981 3.3663,-1.5807 c 3.8043,8.7392 7.0428,17.3186 9.3725,25.6387 -3.2356,-8.4969 -7.4171,-16.5473 -12.7388,-24.058 z"
       style="fill:#ffcc00;fill-rule:evenodd;stroke:#1b1918;stroke-width:0.63010001;stroke-linecap:butt;stroke-linejoin:miter;stroke-dasharray:none;fill-opacity:1"
       id="path943" />
    <path
       inkscape:connector-curvature="0"
       d="m -583.4697,987.58141 c 8.8359,-4.5612 23.7487,13.11169 20.4963,27.04609 -11.774,0.5262 -28.825,-20.02729 -20.4963,-27.04609 z"
       style="fill:#ffcc00;fill-rule:evenodd;stroke:#1b1918;stroke-width:1.88999999;stroke-linecap:butt;stroke-linejoin:miter;stroke-dasharray:none;fill-opacity:1"
       id="path945" />
    <path
       inkscape:connector-curvature="0"
       d="m -584.955,989.42571 2.8673,-2.3683 c 5.8586,7.5182 11.1296,15.02209 15.4557,22.50129 -5.2477,-7.4249 -11.3003,-14.18229 -18.323,-20.13299 z"
       style="fill:#ffcc00;fill-rule:evenodd;stroke:#1b1918;stroke-width:0.63010001;stroke-linecap:butt;stroke-linejoin:miter;stroke-dasharray:none;fill-opacity:1"
       id="path947" />
    <path
       inkscape:connector-curvature="0"
       d="m -572.148,972.60401 c 8.8359,-4.5612 23.7487,13.1117 20.4963,27.0461 -11.774,0.52619 -28.825,-20.0273 -20.4963,-27.0461 z"
       style="fill:#ffcc00;fill-rule:evenodd;stroke:#1b1918;stroke-width:1.88999999;stroke-linecap:butt;stroke-linejoin:miter;stroke-dasharray:none;fill-opacity:1"
       id="path949" />
    <path
       inkscape:connector-curvature="0"
       d="m -573.6333,974.44831 2.8673,-2.3683 c 5.8586,7.5181 11.1296,15.022 15.4558,22.5013 -5.2478,-7.425 -11.3003,-14.1823 -18.3231,-20.133 z"
       style="fill:#ffcc00;fill-rule:evenodd;stroke:#1b1918;stroke-width:0.63010001;stroke-linecap:butt;stroke-linejoin:miter;stroke-dasharray:none;fill-opacity:1"
       id="path951" />
    <path
       inkscape:connector-curvature="0"
       d="m -611.7164,972.60011 c 10.3469,-6.2551 29.882,13.969 27.0743,31.13969 -14.2419,1.5988 -36.6054,-21.94449 -27.0743,-31.13969 z"
       style="fill:#ffcc00;fill-rule:evenodd;stroke:#1b1918;stroke-width:1.88999999;stroke-linecap:butt;stroke-linejoin:miter;stroke-dasharray:none;fill-opacity:1"
       id="path953" />
    <path
       inkscape:connector-curvature="0"
       d="m -613.3689,974.95911 3.2856,-3.1074 c 7.7222,8.6434 14.7299,17.3161 20.5882,26.0377 -6.9724,-8.5809 -14.8667,-16.2845 -23.8738,-22.9303 z"
       style="fill:#ffcc00;fill-rule:evenodd;stroke:#1b1918;stroke-width:0.63010001;stroke-linecap:butt;stroke-linejoin:miter;stroke-dasharray:none;fill-opacity:1"
       id="path955" />
    <path
       inkscape:connector-curvature="0"
       d="m -572.9217,948.72851 c 10.3469,-6.2551 29.882,13.969 27.0743,31.1397 -14.2419,1.5989 -36.6054,-21.9444 -27.0743,-31.1397 z"
       style="fill:#ffcc00;fill-rule:evenodd;stroke:#1b1918;stroke-width:1.88999999;stroke-linecap:butt;stroke-linejoin:miter;stroke-dasharray:none;fill-opacity:1"
       id="path957" />
    <path
       inkscape:connector-curvature="0"
       d="m -574.5742,951.08751 3.2857,-3.1074 c 7.7221,8.6434 14.7298,17.3161 20.5881,26.0377 -6.9724,-8.5809 -14.8667,-16.2844 -23.8738,-22.9303 z"
       style="fill:#ffcc00;fill-rule:evenodd;stroke:#1b1918;stroke-width:0.63010001;stroke-linecap:butt;stroke-linejoin:miter;stroke-dasharray:none;fill-opacity:1"
       id="path959" />
    <path
       inkscape:connector-curvature="0"
       d="m -586.3517,959.08331 c 10.3469,-6.2551 29.882,13.969 27.0743,31.1397 -14.2419,1.5988 -36.6054,-21.9445 -27.0743,-31.1397 z"
       style="fill:#ffcc00;fill-rule:evenodd;stroke:#1b1918;stroke-width:1.88999999;stroke-linecap:butt;stroke-linejoin:miter;stroke-dasharray:none;fill-opacity:1"
       id="path961" />
    <path
       inkscape:connector-curvature="0"
       d="m -588.0042,961.44231 3.2857,-3.1074 c 7.7221,8.6434 14.7298,17.3161 20.5881,26.0377 -6.9724,-8.5809 -14.8667,-16.2845 -23.8738,-22.9303 z"
       style="fill:#ffcc00;fill-rule:evenodd;stroke:#1b1918;stroke-width:0.63010001;stroke-linecap:butt;stroke-linejoin:miter;stroke-dasharray:none;fill-opacity:1"
       id="path963" />
    <path
       inkscape:connector-curvature="0"
       d="m -598.1453,968.24821 c 10.3469,-6.2551 29.882,13.969 27.0743,31.1397 -14.2419,1.59889 -36.6054,-21.9444 -27.0743,-31.1397 z"
       style="fill:#ffcc00;fill-rule:evenodd;stroke:#1b1918;stroke-width:1.88999999;stroke-linecap:butt;stroke-linejoin:miter;stroke-dasharray:none;fill-opacity:1"
       id="path965" />
    <path
       inkscape:connector-curvature="0"
       d="m -599.7978,970.60721 3.2856,-3.1074 c 7.7222,8.6434 14.7299,17.3161 20.5881,26.0377 -6.9723,-8.5809 -14.8666,-16.2844 -23.8737,-22.9303 z"
       style="fill:#ffcc00;fill-rule:evenodd;stroke:#1b1918;stroke-width:0.63010001;stroke-linecap:butt;stroke-linejoin:miter;stroke-dasharray:none;fill-opacity:1"
       id="path967" />
    <path
       inkscape:connector-curvature="0"
       d="m -632.8654,969.20161 c 10.118,-11.0685 38.0046,5.3302 39.5024,26.3492 -15.8494,7.07269 -47.8811,-12.1555 -39.5024,-26.3492 z"
       style="fill:#ffcc00;fill-rule:evenodd;stroke:#1b1918;stroke-width:1.88999999;stroke-linecap:butt;stroke-linejoin:miter;stroke-dasharray:none;fill-opacity:1"
       id="path969" />
    <path
       inkscape:connector-curvature="0"
       d="m -634.1081,972.55291 2.9056,-4.8198 c 11.2013,7.2378 21.5936,14.7709 30.6849,22.7817 -10.3269,-7.4392 -21.4675,-13.52 -33.5905,-17.9619 z"
       style="fill:#ffcc00;fill-rule:evenodd;stroke:#1b1918;stroke-width:0.63010001;stroke-linecap:butt;stroke-linejoin:miter;stroke-dasharray:none;fill-opacity:1"
       id="path971" />
    <path
       inkscape:connector-curvature="0"
       d="m -616.572,955.89411 c 10.9096,-10.2891 37.5059,8.129 37.4434,29.2011 -16.3294,5.8801 -46.8498,-15.6664 -37.4434,-29.2011 z"
       style="fill:#ffcc00;fill-rule:evenodd;stroke:#1b1918;stroke-width:1.88999999;stroke-linecap:butt;stroke-linejoin:miter;stroke-dasharray:none;fill-opacity:1"
       id="path973" />
    <path
       inkscape:connector-curvature="0"
       d="m -618.0594,959.14431 3.2545,-4.5915 c 10.6349,8.0472 20.441,16.3287 28.9144,24.9907 -9.4286,-7.7272 -20.302,-14.9199 -32.1689,-20.3992 z"
       style="fill:#ffcc00;fill-rule:evenodd;stroke:#1b1918;stroke-width:0.63010001;stroke-linecap:butt;stroke-linejoin:miter;stroke-dasharray:none;fill-opacity:1"
       id="path975" />
    <path
       inkscape:connector-curvature="0"
       d="m -581.2425,932.41581 c 11.8657,-9.1696 36.5278,11.7679 34.3989,32.7325 -16.8275,4.2501 -45.0874,-20.1859 -34.3989,-32.7325 z"
       style="fill:#ffcc00;fill-rule:evenodd;stroke:#1b1918;stroke-width:1.88999999;stroke-linecap:butt;stroke-linejoin:miter;stroke-dasharray:none;fill-opacity:1"
       id="path977" />
    <path
       inkscape:connector-curvature="0"
       d="m -583.0418,935.50421 3.6893,-4.25 c 9.7943,9.0513 18.7409,18.2548 26.3238,27.7058 -8.8981,-9.0999 -18.8314,-17.001 -30.0131,-23.4558 z"
       style="fill:#ffcc00;fill-rule:evenodd;stroke:#1b1918;stroke-width:0.63010001;stroke-linecap:butt;stroke-linejoin:miter;stroke-dasharray:none;fill-opacity:1"
       id="path979" />
    <path
       inkscape:connector-curvature="0"
       d="m -597.8021,945.43461 c 11.8658,-9.1695 36.5279,11.7679 34.3989,32.7326 -16.8274,4.25 -45.0873,-20.1859 -34.3989,-32.7326 z"
       style="fill:#ffcc00;fill-rule:evenodd;stroke:#1b1918;stroke-width:1.88999999;stroke-linecap:butt;stroke-linejoin:miter;stroke-dasharray:none;fill-opacity:1"
       id="path981" />
    <path
       inkscape:connector-curvature="0"
       d="m -599.6013,948.52311 3.6892,-4.2501 c 9.7944,9.0513 18.741,18.2548 26.3239,27.7059 -8.8981,-9.0999 -18.8314,-17.0011 -30.0131,-23.4558 z"
       style="fill:#ffcc00;fill-rule:evenodd;stroke:#1b1918;stroke-width:0.63010001;stroke-linecap:butt;stroke-linejoin:miter;stroke-dasharray:none;fill-opacity:1"
       id="path983" />
    <path
       inkscape:connector-curvature="0"
       d="m -621.7783,957.91591 c 6.867,7.6861 11.5914,18.1791 10.6045,28.9279 -6.9681,2.0789 -15.6001,0.1168 -23.4147,-3.9961 l -5.3099,-10.9553 -0.2758,0.1568 c 6.5223,-3.7364 12.7102,-8.4744 18.3959,-14.1333 z m -21.5451,15.8458 c 0.2254,-0.1161 0.4498,-0.2333 0.6744,-0.3519 -0.2246,0.1183 -0.449,0.2358 -0.6744,0.3519 z m 0.9459,-0.4954 c 0.2894,-0.154 0.578,-0.3101 0.8659,-0.468 -0.2883,0.1575 -0.5765,0.3144 -0.8659,0.468 z m 1.0627,-0.5759 c 0.2233,-0.1232 0.4462,-0.2475 0.6687,-0.3729 -0.2225,0.125 -0.4454,0.25 -0.6687,0.3729 z"
       style="fill:#ffcc00;fill-rule:evenodd;stroke:#1b1918;stroke-width:1.88999999;stroke-linecap:butt;stroke-linejoin:miter;stroke-dasharray:none;fill-opacity:1"
       id="path985" />
    <path
       inkscape:connector-curvature="0"
       d="m -631.0597,966.02281 c 4.3683,4.484 8.498,9.0224 12.3441,13.625 -4.4851,-4.3776 -9.1817,-8.4966 -14.108,-12.3362 0.5901,-0.4251 1.1813,-0.8466 1.7639,-1.2888 z"
       style="fill:#ffcc00;fill-rule:evenodd;stroke:#1b1918;stroke-width:0.63010001;stroke-linecap:butt;stroke-linejoin:miter;stroke-dasharray:none;fill-opacity:1"
       id="path987" />
    <path
       inkscape:connector-curvature="0"
       d="m -607.7307,940.41121 c 8.198,7.8125 14.2441,19.5201 13.1396,31.5477 -9.6575,2.8812 -22.5106,-1.9997 -31.9559,-9.6104 6.9948,-6.0583 13.3582,-13.4153 18.8163,-21.9373 z"
       style="fill:#ffcc00;fill-rule:evenodd;stroke:#1b1918;stroke-width:1.88999999;stroke-linecap:butt;stroke-linejoin:miter;stroke-dasharray:none;fill-opacity:1"
       id="path989" />
    <path
       inkscape:connector-curvature="0"
       d="m -615.0749,950.52561 c 4.5901,4.6834 8.9209,9.4253 12.942,14.2373 -4.5604,-4.4516 -9.3399,-8.6356 -14.3566,-12.5302 0.4787,-0.558 0.9452,-1.1349 1.4146,-1.7071 z"
       style="fill:#ffcc00;fill-rule:evenodd;stroke:#1b1918;stroke-width:0.63010001;stroke-linecap:butt;stroke-linejoin:miter;stroke-dasharray:none;fill-opacity:1"
       id="path991" />
    <path
       inkscape:connector-curvature="0"
       d="m -595.048,905.42471 c 14.9828,0.5515 34.2843,20.3149 32.3825,41.0273 -12.4105,3.7025 -30.1003,-5.4103 -39.0494,-16.6663 2.5251,-5.0578 4.7687,-10.423 6.6669,-16.0973 z"
       style="fill:#ffcc00;fill-rule:evenodd;stroke:#1b1918;stroke-width:1.88999999;stroke-linecap:butt;stroke-linejoin:miter;stroke-dasharray:none;fill-opacity:1"
       id="path993" />
    <path
       inkscape:connector-curvature="0"
       d="m -595.048,913.50551 c 9.1078,8.3966 17.4919,16.956 24.8407,25.7505 -8.0947,-7.9008 -16.8778,-14.961 -26.4563,-21.05 0.5597,-1.4863 1.1038,-2.9873 1.6156,-4.5176 z"
       style="fill:#ffcc00;fill-rule:evenodd;stroke:#1b1918;stroke-width:0.63010001;stroke-linecap:butt;stroke-linejoin:miter;stroke-dasharray:none;fill-opacity:1"
       id="path995" />
    <path
       inkscape:connector-curvature="0"
       d="m -597.6595,920.78221 c 12.8484,5.68 25.4769,21.9834 23.9212,38.9237 -11.6164,3.4656 -27.857,-4.298 -37.2269,-14.5363 5.1799,-7.216 9.6839,-15.3721 13.3057,-24.3874 z"
       style="fill:#ffcc00;fill-rule:evenodd;stroke:#1b1918;stroke-width:1.88999999;stroke-linecap:butt;stroke-linejoin:miter;stroke-dasharray:none;fill-opacity:1"
       id="path997" />
    <path
       inkscape:connector-curvature="0"
       d="m -602.0878,930.53371 c 7.5571,7.1849 14.5569,14.4959 20.8078,21.9762 -7.0039,-6.8363 -14.5235,-13.0424 -22.6271,-18.5356 0.6219,-1.1291 1.2277,-2.2769 1.8193,-3.4406 z"
       style="fill:#ffcc00;fill-rule:evenodd;stroke:#1b1918;stroke-width:0.63010001;stroke-linecap:butt;stroke-linejoin:miter;stroke-dasharray:none;fill-opacity:1"
       id="path999" />
    <path
       inkscape:connector-curvature="0"
       d="m -797.9371,1011.7473 c 8.0947,-54.73979 4.3922,-98.63619 -56.1487,-90.28679 -77.9241,55.5947 9.1499,98.20619 5.3132,151.73539 -21.035,45.0805 -17.1032,66.4949 7.5149,68.3016 16.4399,10.4727 31.0851,13.0035 44.2804,9.1135 0.0661,-2.6851 0.4458,-5.6696 1.1999,-8.9777 l 18.6581,-36.964 c -43.2759,17.6161 -78.5193,-2.1383 -48.3397,-25.6627 z m -32.1721,-40.20709 c 5.4507,-9.9768 -3.3431,-14.3973 -8.0511,-3.5496 -12.4045,31.857 -6.0447,40.20639 16.1423,72.25449 l 1.9118,-2.4629 c -11.5626,-13.2925 -20.257,-27.7505 -21.3422,-39.19369 -0.8991,-9.4811 5.975,-16.736 11.3392,-27.0483 z"
       style="fill:#006227;fill-rule:evenodd;stroke:#1b1918;stroke-width:2.52080011;stroke-linecap:butt;stroke-linejoin:miter;stroke-dasharray:none;fill-opacity:1"
       id="path1001" />
    <path
       inkscape:connector-curvature="0"
       d="m -832.4014,1056.8061 c -39.4241,47.8924 1.1499,89.5609 37.3312,83.4258"
       style="fill:#006227;fill-rule:evenodd;stroke:#1b1918;stroke-width:2.52080011;stroke-linecap:butt;stroke-linejoin:miter;stroke-dasharray:none;fill-opacity:1"
       id="path1003" />
    <path
       inkscape:connector-curvature="0"
       d="m -847.9879,1103.1954 c -4.3229,5.0309 -6.5994,22.0702 6.7302,38.3021"
       style="fill:#006227;fill-rule:evenodd;stroke:#1b1918;stroke-width:2.52080011;stroke-linecap:butt;stroke-linejoin:miter;stroke-dasharray:none;fill-opacity:1"
       id="path1005" />
    <g
       id="Layer1006"
       transform="translate(-1242.9635,417.48391)"
       style="fill:#ffcc00;fill-opacity:1">
      <path
         inkscape:connector-curvature="0"
         d="m 461.7738,586.9499 -15.4965,-17.2607 c -0.7908,11.0467 -10.5902,19.14 -6.8066,26.3506 -0.8505,-3.0584 -7.0517,3.8022 -3.566,8.9063 -0.4312,1.4428 -0.947,-0.5715 -2.334,0.4583 -1.0652,0.7905 -1.2238,3.7886 -2.6987,5.0299 -3.2446,2.7309 -8.3294,4.3297 -11.4254,7.2817 -5.4524,5.1995 -8.4951,14.1984 -11.8325,20.2577 -8.0705,14.6502 -4.1547,31.1472 9.8239,28.7664 3.6343,3.071 7.6861,2.8552 8.8417,-0.2057 5.6035,8.1165 11.7897,7.9607 18.3741,2.1457 -2.7169,-1.5467 -7.501,-2.9466 -8.8895,-7.8861 -1.3885,-4.9398 3.1256,-16.6663 0.5558,-21.7537 2.3458,-2.8673 3.2653,-9.4553 6.2072,-12.0111 4.164,-3.6171 10.1594,-3.3031 10.786,-8.762 -0.1172,4.3608 1.9221,6.4444 5.0777,7.3492 8.054,-2.3679 16.1176,-4.479 24.1899,-6.3326 -2.4416,-10.6398 -8.1469,-15.6143 -22.122,-6.2287 3.8011,-6.8205 -2.0379,-10.1426 -5.9908,-6.5622 3.0352,-1.9283 2.6284,-7.4371 -1.4774,-7.9176 3.4674,0.1229 6.3466,-7.7747 8.7831,-11.6254 z"
         style="fill:#ffcc00;fill-rule:evenodd;stroke:#1b1918;stroke-width:2.52080011;stroke-linecap:butt;stroke-linejoin:miter;stroke-dasharray:none;fill-opacity:1"
         id="path1007" />
      <path
         inkscape:connector-curvature="0"
         d="m 422.5165,626.9299 c -5.7493,7.1867 -14.9496,22.7942 -5.0785,39.8102"
         style="fill:#ffcc00;fill-rule:evenodd;stroke:#1b1918;stroke-width:1.88999999;stroke-linecap:butt;stroke-linejoin:miter;stroke-dasharray:none;fill-opacity:1"
         id="path1009" />
      <path
         inkscape:connector-curvature="0"
         d="m 432.4819,625.0152 c -5.7496,7.1867 -14.0072,28.3389 -6.2022,41.5192"
         style="fill:#ffcc00;fill-rule:evenodd;stroke:#1b1918;stroke-width:1.88999999;stroke-linecap:butt;stroke-linejoin:miter;stroke-dasharray:none;fill-opacity:1"
         id="path1011" />
    </g>
    <path
       inkscape:connector-curvature="0"
       d="m -752.8162,993.45821 c -7.8665,-6.0868 -25.7416,8.59129 -25.0679,22.88429 11.4886,2.6505 31.9888,-14.4724 25.0679,-22.88429 z"
       style="fill:#ffcc00;fill-rule:evenodd;stroke:#1b1918;stroke-width:1.88999999;stroke-linecap:butt;stroke-linejoin:miter;stroke-dasharray:none;fill-opacity:1"
       id="path1014" />
    <path
       inkscape:connector-curvature="0"
       d="m -751.6896,995.54151 -2.3915,-2.8491 c -7.1267,6.3322 -13.6733,12.75659 -19.2847,19.32779 6.5087,-6.3511 13.6883,-11.8993 21.6762,-16.47869 z"
       style="fill:#ffcc00;fill-rule:evenodd;stroke:#1b1918;stroke-width:0.63010001;stroke-linecap:butt;stroke-linejoin:miter;stroke-dasharray:none;fill-opacity:1"
       id="path1016" />
    <path
       inkscape:connector-curvature="0"
       d="m -772.2795,984.45621 c -7.8657,-6.0869 -25.7412,8.5912 -25.0675,22.88419 11.4882,2.6505 31.9891,-14.47229 25.0675,-22.88419 z"
       style="fill:#ffcc00;fill-rule:evenodd;stroke:#1b1918;stroke-width:1.88999999;stroke-linecap:butt;stroke-linejoin:miter;stroke-dasharray:none;fill-opacity:1"
       id="path1018" />
    <path
       inkscape:connector-curvature="0"
       d="m -771.1521,986.53941 -2.3919,-2.8491 c -7.1263,6.3323 -13.6729,12.7567 -19.2847,19.32789 6.5087,-6.35119 13.6886,-11.89929 21.6766,-16.47879 z"
       style="fill:#ffcc00;fill-rule:evenodd;stroke:#1b1918;stroke-width:0.63010001;stroke-linecap:butt;stroke-linejoin:miter;stroke-dasharray:none;fill-opacity:1"
       id="path1020" />
    <path
       inkscape:connector-curvature="0"
       d="m -791.9621,966.29571 c -9.6964,-2.2197 -19.7483,18.6074 -13.1289,31.2947 11.539,-2.4197 22.9454,-26.5681 13.1289,-31.2947 z"
       style="fill:#ffcc00;fill-rule:evenodd;stroke:#1b1918;stroke-width:1.88999999;stroke-linecap:butt;stroke-linejoin:miter;stroke-dasharray:none;fill-opacity:1"
       id="path1022" />
    <path
       inkscape:connector-curvature="0"
       d="m -790.0635,967.71311 -3.3681,-1.5814 c -3.8054,8.7398 -7.0456,17.3186 -9.3764,25.6391 3.237,-8.4973 7.4203,-16.5474 12.7445,-24.0577 z"
       style="fill:#ffcc00;fill-rule:evenodd;stroke:#1b1918;stroke-width:0.63010001;stroke-linecap:butt;stroke-linejoin:miter;stroke-dasharray:none;fill-opacity:1"
       id="path1024" />
    <path
       inkscape:connector-curvature="0"
       d="m -766.8095,987.98431 c -8.8392,-4.5612 -23.758,13.11179 -20.5042,27.04609 11.779,0.5259 28.8357,-20.02729 20.5042,-27.04609 z"
       style="fill:#ffcc00;fill-rule:evenodd;stroke:#1b1918;stroke-width:1.88999999;stroke-linecap:butt;stroke-linejoin:miter;stroke-dasharray:none;fill-opacity:1"
       id="path1026" />
    <path
       inkscape:connector-curvature="0"
       d="m -765.3236,989.82901 -2.868,-2.369 c -5.8611,7.5185 -11.1342,15.02239 -15.4622,22.50159 5.2496,-7.4253 11.3046,-14.18219 18.3302,-20.13259 z"
       style="fill:#ffcc00;fill-rule:evenodd;stroke:#1b1918;stroke-width:0.63010001;stroke-linecap:butt;stroke-linejoin:miter;stroke-dasharray:none;fill-opacity:1"
       id="path1028" />
    <path
       inkscape:connector-curvature="0"
       d="m -778.1352,973.00691 c -8.8395,-4.5612 -23.7584,13.1117 -20.5046,27.04609 11.7787,0.5258 28.8358,-20.02729 20.5046,-27.04609 z"
       style="fill:#ffcc00;fill-rule:evenodd;stroke:#1b1918;stroke-width:1.88999999;stroke-linecap:butt;stroke-linejoin:miter;stroke-dasharray:none;fill-opacity:1"
       id="path1030" />
    <path
       inkscape:connector-curvature="0"
       d="m -776.6496,974.85151 -2.868,-2.369 c -5.8611,7.5186 -11.1346,15.0225 -15.4622,22.5017 5.2496,-7.4253 11.3046,-14.1823 18.3302,-20.1327 z"
       style="fill:#ffcc00;fill-rule:evenodd;stroke:#1b1918;stroke-width:0.63010001;stroke-linecap:butt;stroke-linejoin:miter;stroke-dasharray:none;fill-opacity:1"
       id="path1032" />
    <path
       inkscape:connector-curvature="0"
       d="m -738.5518,973.00301 c -10.3516,-6.2551 -29.8941,13.969 -27.0843,31.14009 14.2469,1.5988 36.6189,-21.94449 27.0843,-31.14009 z"
       style="fill:#ffcc00;fill-rule:evenodd;stroke:#1b1918;stroke-width:1.88999999;stroke-linecap:butt;stroke-linejoin:miter;stroke-dasharray:none;fill-opacity:1"
       id="path1034" />
    <path
       inkscape:connector-curvature="0"
       d="m -736.8993,975.36241 -3.2867,-3.1081 c -7.7243,8.6434 -14.7349,17.3168 -20.596,26.0373 6.9752,-8.5798 14.8728,-16.2834 23.8827,-22.9292 z"
       style="fill:#ffcc00;fill-rule:evenodd;stroke:#1b1918;stroke-width:0.63010001;stroke-linecap:butt;stroke-linejoin:miter;stroke-dasharray:none;fill-opacity:1"
       id="path1036" />
    <path
       inkscape:connector-curvature="0"
       d="m -777.3612,949.13141 c -10.3515,-6.2551 -29.8941,13.969 -27.0846,31.1401 14.2473,1.5989 36.6193,-21.9445 27.0846,-31.1401 z"
       style="fill:#ffcc00;fill-rule:evenodd;stroke:#1b1918;stroke-width:1.88999999;stroke-linecap:butt;stroke-linejoin:miter;stroke-dasharray:none;fill-opacity:1"
       id="path1038" />
    <path
       inkscape:connector-curvature="0"
       d="m -775.7091,951.49081 -3.2866,-3.1081 c -7.7243,8.6434 -14.7349,17.3168 -20.5957,26.0373 6.9749,-8.5798 14.8724,-16.2833 23.8823,-22.9292 z"
       style="fill:#ffcc00;fill-rule:evenodd;stroke:#1b1918;stroke-width:0.63010001;stroke-linecap:butt;stroke-linejoin:miter;stroke-dasharray:none;fill-opacity:1"
       id="path1040" />
    <path
       inkscape:connector-curvature="0"
       d="m -763.9265,959.48621 c -10.3512,-6.2551 -29.8938,13.969 -27.084,31.1401 14.247,1.5988 36.6193,-21.9445 27.084,-31.1401 z"
       style="fill:#ffcc00;fill-rule:evenodd;stroke:#1b1918;stroke-width:1.88999999;stroke-linecap:butt;stroke-linejoin:miter;stroke-dasharray:none;fill-opacity:1"
       id="path1042" />
    <path
       inkscape:connector-curvature="0"
       d="m -762.2741,961.84561 -3.2866,-3.1081 c -7.7243,8.6434 -14.7346,17.3168 -20.5957,26.0373 6.9749,-8.5798 14.8728,-16.2834 23.8823,-22.9292 z"
       style="fill:#ffcc00;fill-rule:evenodd;stroke:#1b1918;stroke-width:0.63010001;stroke-linecap:butt;stroke-linejoin:miter;stroke-dasharray:none;fill-opacity:1"
       id="path1044" />
    <path
       inkscape:connector-curvature="0"
       d="m -752.1282,968.65111 c -10.3513,-6.2551 -29.8938,13.969 -27.0844,31.1401 14.2473,1.59889 36.6193,-21.9445 27.0844,-31.1401 z"
       style="fill:#ffcc00;fill-rule:evenodd;stroke:#1b1918;stroke-width:1.88999999;stroke-linecap:butt;stroke-linejoin:miter;stroke-dasharray:none;fill-opacity:1"
       id="path1046" />
    <path
       inkscape:connector-curvature="0"
       d="m -750.4758,971.01051 -3.2867,-3.1081 c -7.7243,8.6434 -14.7349,17.3168 -20.5956,26.0373 6.9749,-8.5798 14.8724,-16.2833 23.8823,-22.9292 z"
       style="fill:#ffcc00;fill-rule:evenodd;stroke:#1b1918;stroke-width:0.63010001;stroke-linecap:butt;stroke-linejoin:miter;stroke-dasharray:none;fill-opacity:1"
       id="path1048" />
    <path
       inkscape:connector-curvature="0"
       d="m -717.3954,969.60491 c -10.1222,-11.0689 -38.0195,5.3299 -39.5162,26.3491 15.8551,7.07239 47.8985,-12.1558 39.5162,-26.3491 z"
       style="fill:#ffcc00;fill-rule:evenodd;stroke:#1b1918;stroke-width:1.88999999;stroke-linecap:butt;stroke-linejoin:miter;stroke-dasharray:none;fill-opacity:1"
       id="path1050" />
    <path
       inkscape:connector-curvature="0"
       d="m -716.1526,972.95621 -2.9063,-4.8209 c -11.2049,7.2381 -21.6015,14.772 -30.6964,22.7817 10.3305,-7.4381 21.4758,-13.5186 33.6027,-17.9608 z"
       style="fill:#ffcc00;fill-rule:evenodd;stroke:#1b1918;stroke-width:0.63010001;stroke-linecap:butt;stroke-linejoin:miter;stroke-dasharray:none;fill-opacity:1"
       id="path1052" />
    <path
       inkscape:connector-curvature="0"
       d="m -733.6945,956.29741 c -10.9148,-10.2894 -37.5212,8.1286 -37.4573,29.2011 16.3356,5.8797 46.8673,-15.6668 37.4573,-29.2011 z"
       style="fill:#ffcc00;fill-rule:evenodd;stroke:#1b1918;stroke-width:1.88999999;stroke-linecap:butt;stroke-linejoin:miter;stroke-dasharray:none;fill-opacity:1"
       id="path1054" />
    <path
       inkscape:connector-curvature="0"
       d="m -732.2074,959.54761 -3.2549,-4.5926 c -10.6384,8.0476 -20.4484,16.3298 -28.9257,24.9907 9.7514,-8.1822 20.4159,-15.0707 32.1806,-20.3981 z"
       style="fill:#ffcc00;fill-rule:evenodd;stroke:#1b1918;stroke-width:0.63010001;stroke-linecap:butt;stroke-linejoin:miter;stroke-dasharray:none;fill-opacity:1"
       id="path1056" />
    <path
       inkscape:connector-curvature="0"
       d="m -769.0375,932.81911 c -11.8715,-9.1699 -36.5425,11.7675 -34.4114,32.7321 16.8335,4.2501 45.1041,-20.1859 34.4114,-32.7321 z"
       style="fill:#ffcc00;fill-rule:evenodd;stroke:#1b1918;stroke-width:1.88999999;stroke-linecap:butt;stroke-linejoin:miter;stroke-dasharray:none;fill-opacity:1"
       id="path1058" />
    <path
       inkscape:connector-curvature="0"
       d="m -767.2386,935.90751 -3.6899,-4.2511 c -9.7972,9.0517 -18.7474,18.2559 -26.3339,27.7058 8.9013,-9.0988 18.8389,-16.9996 30.0238,-23.4547 z"
       style="fill:#ffcc00;fill-rule:evenodd;stroke:#1b1918;stroke-width:0.63010001;stroke-linecap:butt;stroke-linejoin:miter;stroke-dasharray:none;fill-opacity:1"
       id="path1060" />
    <path
       inkscape:connector-curvature="0"
       d="m -752.4715,945.83791 c -11.8715,-9.1699 -36.5425,11.7676 -34.4114,32.7322 16.8331,4.2501 45.1041,-20.1859 34.4114,-32.7322 z"
       style="fill:#ffcc00;fill-rule:evenodd;stroke:#1b1918;stroke-width:1.88999999;stroke-linecap:butt;stroke-linejoin:miter;stroke-dasharray:none;fill-opacity:1"
       id="path1062" />
    <path
       inkscape:connector-curvature="0"
       d="m -750.6726,948.92641 -3.69,-4.2512 c -9.7972,9.0517 -18.7474,18.2559 -26.3342,27.7059 8.9017,-9.0988 18.8389,-16.9996 30.0242,-23.4547 z"
       style="fill:#ffcc00;fill-rule:evenodd;stroke:#1b1918;stroke-width:0.63010001;stroke-linecap:butt;stroke-linejoin:miter;stroke-dasharray:none;fill-opacity:1"
       id="path1064" />
    <path
       inkscape:connector-curvature="0"
       d="m -728.6825,958.54171 c -6.7623,7.6654 -11.3899,18.0591 -10.4115,28.7057 6.9048,2.0593 15.4432,0.1543 23.2025,-3.8789 l 5.4064,-10.7106 c -6.2991,-3.601 -12.4074,-8.2819 -18.1974,-14.1162 z"
       style="fill:#ffcc00;fill-rule:evenodd;stroke:#1b1918;stroke-width:1.88999999;stroke-linecap:butt;stroke-linejoin:miter;stroke-dasharray:none;fill-opacity:1"
       id="path1066" />
    <path
       inkscape:connector-curvature="0"
       d="m -719.4493,966.68001 c -4.2787,4.4016 -8.3262,8.8552 -12.1012,13.37 4.3915,-4.2844 8.986,-8.3215 13.8001,-12.0908 -0.5691,-0.4137 -1.1342,-0.8462 -1.6989,-1.2792 z"
       style="fill:#ffcc00;fill-rule:evenodd;stroke:#1b1918;stroke-width:0.63010001;stroke-linecap:butt;stroke-linejoin:miter;stroke-dasharray:none;fill-opacity:1"
       id="path1068" />
    <path
       inkscape:connector-curvature="0"
       d="m -742.7447,941.01171 c -8.0962,7.8114 -14.0344,19.4232 -12.9381,31.3508 9.5689,2.8538 22.2748,-1.9071 31.6976,-9.3932 -6.6737,-5.8614 -12.9838,-13.1581 -18.7595,-21.9576 z"
       style="fill:#ffcc00;fill-rule:evenodd;stroke:#1b1918;stroke-width:1.88999999;stroke-linecap:butt;stroke-linejoin:miter;stroke-dasharray:none;fill-opacity:1"
       id="path1070" />
    <path
       inkscape:connector-curvature="0"
       d="m -735.3619,951.10211 c -4.5287,4.627 -8.8042,9.311 -12.7774,14.063 4.5037,-4.394 9.221,-8.528 14.1694,-12.3794 -0.4679,-0.5494 -0.9294,-1.1178 -1.392,-1.6836 z"
       style="fill:#ffcc00;fill-rule:evenodd;stroke:#1b1918;stroke-width:0.63010001;stroke-linecap:butt;stroke-linejoin:miter;stroke-dasharray:none;fill-opacity:1"
       id="path1072" />
    <path
       inkscape:connector-curvature="0"
       d="m -756.8359,905.95551 c -14.7224,1.8232 -32.6211,20.9207 -30.7847,40.9001 12.2487,3.6528 29.6373,-5.1702 38.6983,-16.2176 -2.813,-5.2206 -5.4624,-10.8588 -7.9136,-16.9496 z"
       style="fill:#ffcc00;fill-rule:evenodd;stroke:#1b1918;stroke-width:1.88999999;stroke-linecap:butt;stroke-linejoin:miter;stroke-dasharray:none;fill-opacity:1"
       id="path1074" />
    <path
       inkscape:connector-curvature="0"
       d="m -756.3208,914.91971 c -8.6891,8.0726 -16.6995,16.2984 -23.7562,24.7385 7.8439,-7.6528 16.3352,-14.5166 25.569,-20.4741 -0.6158,-1.395 -1.2188,-2.8191 -1.8128,-4.2644 z"
       style="fill:#ffcc00;fill-rule:evenodd;stroke:#1b1918;stroke-width:0.63010001;stroke-linecap:butt;stroke-linejoin:miter;stroke-dasharray:none;fill-opacity:1"
       id="path1076" />
    <path
       inkscape:connector-curvature="0"
       d="m -753.4335,921.56161 c -12.5652,5.9965 -24.6346,21.9666 -23.1104,38.5479 11.5472,3.4435 27.6616,-4.2004 37.0619,-14.3423 -5.0513,-6.9731 -9.735,-15.0303 -13.9515,-24.2056 z"
       style="fill:#ffcc00;fill-rule:evenodd;stroke:#1b1918;stroke-width:1.88999999;stroke-linecap:butt;stroke-linejoin:miter;stroke-dasharray:none;fill-opacity:1"
       id="path1078" />
    <path
       inkscape:connector-curvature="0"
       d="m -748.5701,931.30381 c -7.4124,7.067 -14.283,14.2562 -20.4299,21.6083 6.9085,-6.7402 14.3184,-12.8685 22.2963,-18.3041 -0.6287,-1.0845 -1.2531,-2.1797 -1.8664,-3.3042 z"
       style="fill:#ffcc00;fill-rule:evenodd;stroke:#1b1918;stroke-width:0.63010001;stroke-linecap:butt;stroke-linejoin:miter;stroke-dasharray:none;fill-opacity:1"
       id="path1080" />
    <path
       inkscape:connector-curvature="0"
       d="m -756.8359,799.13781 h 161.7879 v 114.5506 c -26.9143,80.4524 -121.0939,101.11769 -161.7879,0 z"
       style="fill:#ffffff;fill-rule:evenodd;stroke:#1b1918;stroke-width:3.78069997;stroke-linecap:butt;stroke-linejoin:miter;stroke-dasharray:none"
       id="path1082" />
    <path
       inkscape:connector-curvature="0"
       d="m -756.8359,799.13781 h 161.7879 l -148.1154,141.233 c -5.008,-7.7282 -9.6103,-16.5888 -13.6725,-26.6824 z"
       style="fill:#e30016;fill-rule:evenodd;stroke:#1b1918;stroke-width:0.63010001;stroke-linecap:butt;stroke-linejoin:miter;stroke-dasharray:none"
       id="path1084" />
    <path
       inkscape:connector-curvature="0"
       d="m -731.5366,673.53161 c 5.4986,-14.8953 16.0252,-13.1953 29.3726,-2.1872 35.8735,-19.5086 48.8806,27.3694 75.3126,30.875 -4.0847,4.6652 -9.0277,6.7545 -14.6824,6.7102 4.6234,5.8789 9.8551,9.5007 15.4633,11.7236 -4.543,1.6346 -9.0371,1.7375 -13.4818,0.3086 1.9975,4.8399 5.6668,8.8792 11.9969,11.6447 -3.0363,2.788 -6.6541,3.9182 -10.9699,3.0506 3.1945,7.4299 8.4012,12.0333 14.0626,15.9979 -3.4046,0.3005 -6.8581,-0.5854 -10.3602,-2.6569 3.8547,7.6507 9.1367,13.9673 15.8476,18.9503 -4.8509,0.8345 -9.5017,0.4237 -13.8604,-1.8053 2.1743,8.1001 8.4798,14.0208 16.4652,19.0567 -4.1379,1.3764 -8.2265,1.4678 -12.2651,0.2751 3.0495,4.7802 7.4721,8.6766 13.2689,11.6907 l -10.6892,0.0661 -4.8252,-6.9988 c 1.5293,13.9773 -3.9996,14.9542 -10.6627,0.5037 -1.8821,16.5974 -6.6769,15.2525 -13.4642,1.631 -3.1078,15.1042 -7.7293,13.5465 -13.3872,0.5898 -3.6146,15.7357 -8.2108,15.7733 -13.7872,0.1132 -4.3265,13.25 -8.8495,13.2546 -13.5682,0.0146 -5.7929,10.3884 -10.1633,11.3829 -12.8167,0.1869 -6.0175,8.519 -11.3292,9.7718 -12.0733,0.0418 -0.4665,4.2808 -5.1674,4.4894 -10.7477,3.8539 6.4201,-2.6923 9.5828,-9.9447 12.069,-18.1437 -2.878,2.1318 -6.4319,2.4833 -10.4877,1.4759 5.8254,-3.881 10.1687,-9.3735 12.2648,-17.375 -2.2043,1.3974 -4.6423,1.7968 -7.2399,1.5146 4.548,-3.8236 7.9454,-9.0531 10.2283,-15.6436 l -6.2572,1.8492 c 3.4367,-7.1716 9.3753,-11.032 10.3101,-21.515 -1.8571,4.788 -5.6039,5.9332 -10.2097,5.4228 8.618,-8.0587 7.0566,-21.8705 21.4279,-29.0436 -13.5582,-2.9927 -23.2993,-9.6611 -26.2352,-22.8829 7.4581,6.3648 16.423,9.5018 26.6349,9.9651 -8.9667,-6.7148 -10.557,-22.4292 -32.6536,-19.26 z"
       style="fill:#ffcc00;fill-rule:evenodd;stroke:#1b1918;stroke-width:1.25989997;stroke-linecap:butt;stroke-linejoin:miter;stroke-dasharray:none;fill-opacity:1"
       id="path1086" />
    <path
       inkscape:connector-curvature="0"
       d="m -715.3085,772.22741 c -5.7593,10.123 3.2341,14.212 8.9991,0 -0.1911,13.4547 7.0342,15.2211 12.2405,0 0.5151,13.5397 9.8111,17.2925 12.8774,0 1.2077,15.7476 10.1483,17.9795 12.5095,0 3.112,15.1443 10.3783,17.0393 11.7,0 6.5584,13.3064 12.2059,14.0916 13.6868,0 3.41,10.7435 12.2159,14.3245 9.1996,-0.9566 5.5968,13.2114 -0.7951,16.9185 -8.2472,8.0305 -2.5705,8.473 -6.9056,7.6896 -13.0203,1.3377 -3.7096,8.7234 -8.2237,8.568 -13.3111,0.294 -2.713,8.6977 -8.3051,8.8423 -12.9727,1.1013 -4.4073,7.1177 -8.6913,6.2854 -13.2946,-1.9029 -5.779,7.2839 -10.4245,7.9276 -12.8671,-1.8603 -9.1317,10.7116 -15.8215,4.1472 -7.4999,-6.0437 z"
       style="fill:#3b3b3b;fill-rule:evenodd;stroke:#1b1918;stroke-width:0.63010001;stroke-linecap:butt;stroke-linejoin:miter;stroke-dasharray:none"
       id="path1088" />
    <path
       inkscape:connector-curvature="0"
       d="m -713.0015,756.06191 c -5.4662,10.123 3.0695,14.212 8.5411,0 -0.1814,13.4547 6.6762,15.2211 11.6175,0 0.4889,13.5397 9.3118,17.2925 12.222,0 1.1463,15.7476 9.6318,17.9794 11.8728,0 2.9536,15.1443 9.8502,17.0393 11.1046,0 6.2245,13.3064 11.5846,14.0916 12.9902,0 3.2364,10.7435 11.5941,14.3245 8.7313,-0.9566 5.312,13.2114 -0.7546,16.9185 -7.8275,8.0304 -2.4396,8.4731 -6.5541,7.6897 -12.3576,1.3378 -3.5208,8.7234 -7.8051,8.568 -12.6335,0.294 -2.575,8.6977 -7.8825,8.8423 -12.3125,1.1013 -4.183,7.1177 -8.249,6.2854 -12.618,-1.9029 -5.4848,7.2839 -9.8939,7.9275 -12.2122,-1.8603 -8.6669,10.7116 -15.0163,4.1472 -7.1182,-6.0437 z"
       style="fill:#3b3b3b;fill-rule:evenodd;stroke:#1b1918;stroke-width:0.63150001;stroke-linecap:butt;stroke-linejoin:miter;stroke-dasharray:none"
       id="path1090" />
    <path
       inkscape:connector-curvature="0"
       d="m -709.6467,742.40441 c -4.9717,10.1229 2.7919,14.2119 7.7685,0 -0.1649,13.4546 6.0723,15.221 10.5667,0 0.4446,13.5397 8.4694,17.2925 11.1164,0 1.0425,15.7476 8.7605,17.9794 10.7988,0 2.6864,15.1442 8.9591,17.0392 10.1,0 5.6616,13.3064 10.5368,14.0915 11.8152,0 2.9436,10.7434 10.5454,14.3244 7.9416,-0.9566 4.8314,13.2114 -0.6865,16.9185 -7.1195,8.0304 -2.219,8.473 -5.9612,7.6897 -11.2398,1.3378 -3.2023,8.7234 -7.099,8.568 -11.4907,0.2939 -2.342,8.6977 -7.1694,8.8424 -11.1988,1.1013 -3.8045,7.1178 -7.5027,6.2855 -11.4766,-1.9028 -4.9886,7.2838 -8.9989,7.9275 -11.1075,-1.8604 -7.8829,10.7117 -13.6579,4.1472 -6.4743,-6.0436 z"
       style="fill:#3b3b3b;fill-rule:evenodd;stroke:#1b1918;stroke-width:0.62760001;stroke-linecap:butt;stroke-linejoin:miter;stroke-dasharray:none"
       id="path1092" />
    <path
       inkscape:connector-curvature="0"
       d="m -707.6751,727.24731 c -4.779,10.1229 2.6837,14.2119 7.4675,0 -0.1586,13.4546 5.8369,15.221 10.1571,0 0.4274,13.5396 8.1412,17.2925 10.6856,0 1.0021,15.7476 8.421,17.9794 10.3802,0 2.5824,15.1442 8.6119,17.0392 9.7087,0 5.4421,13.3064 10.1283,14.0915 11.3572,0 2.8295,10.7434 10.1366,14.3244 7.6338,-0.9566 4.6441,13.2114 -0.6598,16.9185 -6.8436,8.0304 -2.1329,8.473 -5.7302,7.6896 -10.8041,1.3378 -3.0782,8.7234 -6.824,8.568 -11.0454,0.2939 -2.2513,8.6977 -6.8916,8.8424 -10.7648,1.1013 -3.6571,7.1178 -7.2119,6.2855 -11.0318,-1.9028 -4.7953,7.2838 -8.6501,7.9275 -10.677,-1.8604 -7.5774,10.7116 -13.1286,4.1472 -6.2234,-6.0436 z"
       style="fill:#3b3b3b;fill-rule:evenodd;stroke:#1b1918;stroke-width:0.63;stroke-linecap:butt;stroke-linejoin:miter;stroke-dasharray:none"
       id="path1094" />
    <path
       inkscape:connector-curvature="0"
       d="m -697.6746,676.44211 c 23.1794,-4.0965 22.9586,9.1735 34.4379,13.7604 -1.9811,0.7945 -3.864,0.6498 -5.6471,-0.4325 1.5667,1.8278 2.4183,4.2375 2.4093,7.3495 -5.8457,-7.3592 -13.8993,-2.2829 -19.2296,-5.8153 -5.0692,-3.3596 -6.9013,-11.5025 -11.9705,-14.8621 z"
       style="fill:#ffffff;fill-rule:evenodd;stroke:#1b1918;stroke-width:1.25989997;stroke-linecap:butt;stroke-linejoin:miter;stroke-dasharray:none"
       id="path1096" />
    <path
       inkscape:connector-curvature="0"
       d="m -672.9703,682.84651 c -0.149,0.5944 -0.3522,1.1963 -0.6126,1.7947 -1.6775,3.8564 -5.0774,6.0968 -7.5925,5.003 -2.5151,-1.0941 -3.1945,-5.1088 -1.5171,-8.9652 0.5687,-1.3078 1.3356,-2.429 2.199,-3.2981 3.1302,1.3599 5.3796,3.3735 7.5232,5.4656 z"
       style="fill:none;stroke:#1b1918;stroke-width:0.63010001;stroke-linecap:butt;stroke-linejoin:miter;stroke-dasharray:none"
       id="path1098" />
    <path
       inkscape:connector-curvature="0"
       d="m -672.9703,682.84651 c -0.149,0.5944 -0.3522,1.1963 -0.6126,1.7947 -1.6775,3.8564 -5.0774,6.0968 -7.5925,5.003 -2.5151,-1.0941 -3.1945,-5.1088 -1.5171,-8.9652 0.5687,-1.3078 1.3356,-2.429 2.199,-3.2981 3.1302,1.3599 5.3796,3.3735 7.5232,5.4656 z"
       style="fill:#1b1918;fill-rule:evenodd;stroke:#1b1918;stroke-width:0.63010001;stroke-linecap:butt;stroke-linejoin:miter;stroke-dasharray:none"
       id="path1100" />
    <path
       inkscape:connector-curvature="0"
       d="m -672.99,682.82721 c -1.4813,3.6668 -4.4165,5.7836 -6.5944,4.7349 -2.1993,-1.0595 -2.7934,-4.9481 -1.3263,-8.6831 0.1936,-0.4929 0.414,-0.9584 0.6547,-1.3931 2.9977,1.3531 5.1828,3.3095 7.266,5.3413 z"
       style="fill:#c6b500;fill-rule:evenodd;stroke:#1b1918;stroke-width:0.63010001;stroke-linecap:butt;stroke-linejoin:miter;stroke-dasharray:none;fill-opacity:1"
       id="path1102" />
    <path
       inkscape:connector-curvature="0"
       d="m -675.3915,477.82551 15.1065,46.799 49.1767,-0.0945 -39.8403,28.8288 15.2863,46.7406 -39.7292,-28.9818 -39.7292,28.9818 15.2863,-46.7406 -39.8403,-28.8288 49.1766,0.0945 z"
       style="fill:#ffe900;fill-rule:evenodd;stroke:#1b1918;stroke-width:0.90219998;stroke-linecap:butt;stroke-linejoin:miter;stroke-dasharray:none"
       id="path1104" />
    <path
       inkscape:connector-curvature="0"
       d="m -675.3106,478.55411 v 65.3415 l -15.1873,-19.271 z"
       style="fill:#ffcb00;fill-rule:evenodd;stroke:#1b1918;stroke-width:0.90189999;stroke-linecap:butt;stroke-linejoin:miter;stroke-dasharray:none"
       id="path1106" />
    <path
       inkscape:connector-curvature="0"
       d="m -675.3106,543.89561 -24.5239,9.4634 -39.84,-28.8295 z"
       style="fill:#ffcb00;fill-rule:evenodd;stroke:#1b1918;stroke-width:0.90189999;stroke-linecap:butt;stroke-linejoin:miter;stroke-dasharray:none"
       id="path1108" />
    <path
       inkscape:connector-curvature="0"
       d="m -675.3914,571.11801 -39.729,28.9813 39.8098,-56.2037 z"
       style="fill:#ffcb00;fill-rule:evenodd;stroke:#1b1918;stroke-width:0.90189999;stroke-linecap:butt;stroke-linejoin:miter;stroke-dasharray:none"
       id="path1110" />
    <path
       inkscape:connector-curvature="0"
       d="m -660.2854,524.62461 -15.0252,19.271 64.2019,-19.3661 z"
       style="fill:#ffcb00;fill-rule:evenodd;stroke:#1b1918;stroke-width:0.90189999;stroke-linecap:butt;stroke-linejoin:miter;stroke-dasharray:none"
       id="path1112" />
    <path
       inkscape:connector-curvature="0"
       d="m -650.9488,553.35901 -24.3618,-9.4634 39.6483,56.2037 z"
       style="fill:#ffcb00;fill-rule:evenodd;stroke:#1b1918;stroke-width:0.90189999;stroke-linecap:butt;stroke-linejoin:miter;stroke-dasharray:none"
       id="path1114" />
    <path
       style="fill:#000000;fill-opacity:0;fill-rule:nonzero;stroke:none;stroke-width:0.18717529;stroke-opacity:1"
       d="m 72.554506,326.5162 c -21.724213,-8.83253 -36.428692,-15.25131 -47.448934,-20.71234 -5.691071,-2.82018 -7.974728,-4.10993 -9.460689,-5.34314 -1.570882,-1.30369 -3.779993,-3.90405 -5.509616,-6.48542 -7.2242397,-10.78177 -9.3676449,-23.0503 -5.8915449,-33.72231 0.9326717,-2.86341 3.046063,-7.01014 4.8672184,-9.55007 l 0.4947406,-0.69001 1.7969339,3.59123 c 2.863605,5.72299 5.714734,9.7484 8.280853,11.69144 6.566617,4.97219 30.456268,20.82455 50.663932,33.61887 l 4.063267,2.57263 -0.547647,0.756 c -2.970563,4.10075 -1.823227,12.393 3.219864,23.27126 0.71588,1.54419 1.346528,2.91291 1.401441,3.0416 0.05491,0.12868 -0.01445,0.2275 -0.154153,0.2196 -0.139699,-0.008 -2.738747,-1.0246 -5.775666,-2.25934 z"
       id="path4667"
       inkscape:connector-curvature="0"
       transform="translate(-925.65986,476.35703)" />
  </g>
</svg>
